<?xml version="1.0" encoding="UTF-8" standalone="no"?>
<!-- Created with Inkscape (http://www.inkscape.org/) -->

<svg
   width="885.51196mm"
   height="81.032028mm"
   viewBox="0 0 885.51196 81.032023"
   version="1.1"
   id="svg5"
   xml:space="preserve"
   inkscape:version="1.2.2 (732a01da63, 2022-12-09)"
   sodipodi:docname="header-traced-slim-fit-dark.svg"
   xmlns:inkscape="http://www.inkscape.org/namespaces/inkscape"
   xmlns:sodipodi="http://sodipodi.sourceforge.net/DTD/sodipodi-0.dtd"
   xmlns="http://www.w3.org/2000/svg"
   xmlns:svg="http://www.w3.org/2000/svg"><sodipodi:namedview
     id="namedview7"
     pagecolor="#ffffff"
     bordercolor="#000000"
     borderopacity="0.25"
     inkscape:showpageshadow="2"
     inkscape:pageopacity="0.0"
     inkscape:pagecheckerboard="true"
     inkscape:deskcolor="#d1d1d1"
     inkscape:document-units="mm"
     showgrid="false"
     inkscape:zoom="0.29709947"
     inkscape:cx="1539.8883"
     inkscape:cy="503.19847"
     inkscape:window-width="1920"
     inkscape:window-height="1013"
     inkscape:window-x="-9"
     inkscape:window-y="-9"
     inkscape:window-maximized="1"
     inkscape:current-layer="layer1"><inkscape:grid
       type="xygrid"
       id="grid274"
       originx="-36.449597"
       originy="-12.631806" /></sodipodi:namedview><defs
     id="defs2" /><g
     inkscape:label="Layer 1"
     inkscape:groupmode="layer"
     id="layer1"
     transform="translate(573.66747,205.89837)"><g
       id="g893"
       transform="translate(-4.6830974,-0.62972372)"
       style="fill:#ffffff"><path
         style="fill:#ffffff;stroke-width:0.123773"
         d="m 268.61112,-124.31103 c -0.47464,-0.11884 -0.96135,-0.57124 -1.22173,-1.13562 -0.21776,-0.472 -0.26022,-0.78879 -0.25033,-1.868 0.0229,-2.50442 0.78036,-4.44897 3.09863,-7.95504 1.53764,-2.32548 3.85662,-4.58185 4.08836,-3.97797 0.048,0.12501 -0.12161,0.39866 -0.47844,0.77204 -2.49563,2.61139 -4.05147,5.49326 -4.05882,7.51815 -0.003,0.88616 0.33326,1.76775 0.77826,2.03909 0.52956,0.32289 0.90946,0.30461 1.39694,-0.0672 0.41668,-0.31781 0.72795,-0.39189 0.84576,-0.20125 0.0851,0.13762 -0.4279,1.41057 -1.05982,2.63005 -0.98856,1.90771 -1.89597,2.55695 -3.13881,2.24576 z m -168.51672,-0.23523 c -2.052852,-0.39093 -3.606355,-1.6181 -4.658496,-3.6799 -0.735077,-1.44048 -0.947492,-2.46793 -0.950261,-4.59638 -0.0049,-3.78794 1.038789,-7.68531 3.487764,-13.0237 0.805295,-1.75542 4.059323,-7.78072 5.914453,-10.95146 0.028,-0.0479 -0.52167,0.18582 -1.22148,0.51927 -1.81299,0.86386 -2.97303,1.16669 -4.490461,1.17225 -1.139422,0.004 -1.303822,-0.0268 -2.069896,-0.38969 -1.024082,-0.48513 -1.88221,-1.27276 -2.78978,-2.56061 -0.381297,-0.54106 -1.012218,-1.30971 -1.402042,-1.7081 -1.151071,-1.17636 -1.90909,-1.35076 -3.156191,-0.72616 -1.190002,0.596 -3.024243,2.53681 -3.614039,3.82401 -0.378116,0.82522 -0.319701,1.4611 0.240413,2.61715 0.683661,1.41103 1.889044,2.45557 5.8912,5.10509 3.445312,2.28088 3.496578,2.32102 3.496578,2.73758 0,0.63085 -0.620339,3.72469 -0.926329,4.61993 -0.03209,0.0939 -0.557452,-0.12628 -1.449529,-0.60736 -4.429185,-2.38854 -5.782791,-2.74045 -8.647995,-2.24828 -2.291373,0.3936 -4.811661,1.47413 -7.317793,3.13737 -1.161119,0.77059 -5.952108,4.6788 -9.69345,7.90734 -4.29516,3.70645 -8.801252,5.6989 -11.553584,5.10863 -1.46572,-0.31434 -3.206611,-1.5782 -3.881239,-2.81771 -1.434438,-2.63553 -1.191045,-6.62086 0.642443,-10.51944 0.803802,-1.70914 1.331924,-2.48112 4.053423,-5.92508 l 2.347397,-2.97055 -0.551044,-0.14516 c -1.139104,-0.30005 -1.584738,-1.15742 -1.565048,-3.01105 0.0145,-1.36657 0.31528,-2.66064 0.978503,-4.21016 1.231402,-2.87699 3.977695,-6.51995 5.66615,-7.51617 0.737589,-0.43518 0.661351,-0.0946 -0.194241,0.86779 -2.371358,2.66731 -3.803378,5.40401 -3.801095,7.2642 0.0023,1.83816 1.077696,2.73751 2.289858,1.91491 0.402549,-0.27317 0.492998,-0.29343 0.642545,-0.14389 0.149543,0.14955 0.103371,0.33465 -0.328009,1.31493 -0.881822,2.00387 -1.787194,3.22944 -2.578683,3.49065 l -0.424644,0.14015 0.24874,0.24874 0.24874,0.24874 -1.047607,1.31532 c -2.195768,2.7569 -4.193136,6.10015 -4.852369,8.12206 -0.848037,2.60098 -0.540944,5.27758 0.73809,6.43311 0.775514,0.70063 1.248599,0.85328 2.649079,0.85477 1.090738,9.4e-4 1.360637,-0.0452 2.272675,-0.39026 2.628359,-0.99445 5.530309,-2.98943 10.290269,-7.07416 5.361797,-4.6012 9.493885,-6.96621 13.651488,-7.81347 0.692427,-0.14111 1.272779,-0.27039 1.289676,-0.28728 0.01689,-0.0169 -0.07779,-0.59048 -0.210408,-1.27462 -0.597815,-3.08391 -0.598877,-5.52849 -0.0037,-8.23723 0.569264,-2.59025 1.838792,-5.59695 2.939935,-6.9628 1.079707,-1.33927 2.536576,-2.08182 3.66805,-1.86955 0.627605,0.11774 1.751047,1.19693 2.553352,2.45277 1.414271,2.21376 1.759005,2.68116 2.50784,3.40023 1.386647,1.33152 2.336446,1.59682 4.36119,1.21818 1.778752,-0.33264 5.579402,-1.66611 8.725982,-3.06152 1.59976,-0.70946 3.08968,-1.36306 3.31093,-1.45247 0.22124,-0.0894 0.40215,-0.19757 0.40202,-0.24037 -1.2e-4,-0.0428 -1.32295,-0.43451 -2.93961,-0.87048 -1.61664,-0.43597 -3.52418,-0.9522 -4.23897,-1.14717 -1.57025,-0.42833 -2.99054,-0.56803 -3.62982,-0.35705 -0.25008,0.0825 -0.45469,0.20144 -0.45469,0.26424 0,0.0672 -1.535498,0.11417 -3.731528,0.11417 h -3.731568 l 0.07524,-0.97572 c 0.139629,-1.81068 0.909039,-3.1329 2.454701,-4.21838 1.5736,-1.10509 3.004464,-1.42295 5.071485,-1.1266 1.63292,0.23412 2.70649,0.54197 7.59743,2.1786 7.96681,2.6659 11.92857,3.44214 18.41987,3.60911 l 2.94826,0.0758 -0.0766,0.32141 c -0.0421,0.17678 -0.59187,1.35182 -1.22163,2.61121 -0.9164,1.83262 -1.1932,2.28727 -1.38637,2.27713 -0.13275,-0.007 -0.96543,-0.11349 -1.85041,-0.23672 -1.10121,-0.15334 -2.4294,-0.22747 -4.20827,-0.23488 -2.56045,-0.0107 -2.62324,-0.005 -4.20827,0.40281 -0.88498,0.2275 -2.61161,0.7779 -3.83697,1.22312 -4.67277,1.69782 -7.042,2.98691 -8.12625,4.42148 -1.09427,1.44783 -2.8088,4.63382 -4.76603,8.85639 -2.646717,5.7101 -3.885674,9.89227 -3.923402,13.24369 -0.02306,2.05041 0.165321,2.6181 1.218692,3.67213 0.661113,0.66152 0.882556,0.79978 1.658473,1.03546 2.095367,0.63645 3.705657,-0.0687 7.652137,-3.35089 2.34381,-1.94928 4.94243,-4.17841 6.0794,-5.21497 1.92671,-1.75656 6.82143,-4.99709 12.39861,-8.20847 4.35846,-2.50964 6.73284,-4.20094 7.71628,-5.49643 l 0.47557,-0.62648 -0.26723,-2.32321 c -0.147,-1.27777 -1.59849,-10.87283 -3.22557,-21.32235 -2.58955,-16.63076 -3.00558,-19.12536 -3.33741,-20.01174 -0.2085,-0.55693 -0.49141,-1.45677 -0.62869,-1.99963 l -0.2496,-0.98702 0.76247,-2.8894 c 0.41936,-1.58917 0.80054,-2.95967 0.84707,-3.04558 0.0491,-0.0906 1.26378,2.17389 2.89468,5.39652 l 2.8101,5.5527 v 0.91358 0.91357 l -1.23373,-1.22909 c -0.67855,-0.67601 -1.25524,-1.20409 -1.28154,-1.17352 -0.0263,0.0305 1.055,7.26843 2.4029,16.08415 1.34789,8.81572 2.51716,16.75265 2.59838,17.63763 0.0937,1.02084 0.12083,2.60446 0.0743,4.33205 -0.14267,5.29166 -0.86991,8.07758 -2.92401,11.20144 -1.88264,2.86308 -2.69718,7.0428 -1.92968,9.90182 0.78614,2.92845 3.10113,4.82925 5.8779,4.82628 3.45182,-0.004 9.27076,-3.29155 16.794,-9.48905 8.36822,-6.89357 10.67697,-8.72219 14.21603,-11.25959 2.77911,-1.99254 4.86346,-3.31668 6.62547,-4.20901 l 1.36443,-0.69097 -0.71498,-0.55634 c -0.39323,-0.30599 -1.68659,-1.25849 -2.87413,-2.11666 -2.47128,-1.78586 -3.53554,-2.73393 -4.25004,-3.78609 -0.79084,-1.16456 -0.99483,-1.80805 -1.00386,-3.16668 -0.0174,-2.62338 0.86144,-4.23836 2.83348,-5.20671 1.01683,-0.4993 2.16396,-0.72107 4.20827,-0.81356 2.83404,-0.12821 5.6934,0.23238 14.48143,1.82621 7.39534,1.34125 10.80615,1.91009 12.97692,2.16422 l 1.83046,0.21429 -0.0779,0.31985 c -0.16352,0.67166 -0.97669,2.84007 -1.44988,3.86624 l -0.49381,1.07092 -0.76126,0.27448 c -3.50032,1.26209 -8.49783,3.40869 -16.02429,6.88298 l -0.90539,0.41794 0.2584,0.36289 c 0.4384,0.61568 0.97784,1.87925 1.24013,2.90486 0.3199,1.25089 0.32044,2.41933 0.001,3.45158 -0.28604,0.92609 -0.94589,1.98319 -1.27732,2.0463 -0.45555,0.0867 -3.3494,-2.13209 -4.94058,-3.78814 l -0.835,-0.86903 -0.31019,0.36863 c -0.95765,1.13811 -2.72498,4.86737 -3.79403,8.00585 -0.89499,2.62745 -1.39497,5.00432 -1.54136,7.32744 -0.22712,3.60456 1.00928,5.3526 3.79808,5.36977 1.0231,0.006 1.10491,-0.0148 2.22792,-0.57466 2.02771,-1.01091 4.19433,-2.75916 8.48085,-6.84322 1.30027,-1.23886 2.8091,-2.59119 3.35294,-3.00519 2.67643,-2.03739 6.29533,-4.20135 11.11603,-6.64698 1.6338,-0.82886 3.27689,-1.69558 3.6513,-1.92604 2.01743,-1.24183 3.34509,-2.47408 3.6068,-3.3476 0.16098,-0.53728 0,-2.83903 -0.33021,-4.71129 -0.10028,-0.5692 -1.46742,-9.44145 -3.03805,-19.7161 -2.81281,-18.4004 -2.86315,-18.70075 -3.35044,-19.98215 -0.83493,-2.19565 -0.8345,-2.14512 -0.0472,-5.41155 0.37582,-1.55926 0.72669,-2.9372 0.7797,-3.06209 0.0729,-0.17183 0.79698,1.12914 2.97622,5.34755 l 2.87988,5.57463 -0.0365,0.89061 -0.0365,0.89061 -1.27279,-1.21093 c -0.70004,-0.66601 -1.29066,-1.18957 -1.31249,-1.16347 -0.0219,0.0261 1.06443,7.26031 2.41391,16.07603 1.34948,8.81572 2.51825,16.58556 2.59728,17.26631 0.18794,1.61901 0.0727,6.55307 -0.20082,8.60221 -0.44908,3.3638 -1.38758,5.95055 -2.66669,7.3501 -0.60048,0.65703 -0.91168,0.83472 -5.5433,3.16521 -6.82521,3.43422 -8.32378,4.46344 -13.01423,8.93814 -4.70953,4.49291 -7.1061,6.37889 -9.8541,7.75471 -1.64155,0.82186 -2.53612,1.06825 -3.88469,1.06992 -1.01761,10e-4 -1.27136,-0.0431 -1.88574,-0.32997 -1.04715,-0.48888 -1.51501,-0.89538 -2.18717,-1.90036 -1.44895,-2.16636 -1.79988,-4.9522 -1.12175,-8.90521 0.76172,-4.44034 2.9961,-10.02427 5.95995,-14.89446 0.27604,-0.45358 0.52861,-0.87004 0.56127,-0.92548 0.15495,-0.26296 -3.29688,1.8266 -5.53483,3.3505 -3.34397,2.27704 -6.01603,4.368 -11.85287,9.27521 -8.77659,7.37875 -11.29968,9.24952 -14.88207,11.03451 -6.26862,3.12344 -10.76786,2.78653 -13.28381,-0.99471 -1.60956,-2.41903 -2.27081,-5.31924 -1.95511,-8.57516 0.21499,-2.21732 0.98903,-5.13297 1.7702,-6.66802 0.13326,-0.26187 0.22449,-0.4936 0.20272,-0.51495 -0.0217,-0.0213 -0.40162,0.16982 -0.8441,0.42482 -0.44249,0.25501 -2.05773,1.17329 -3.58941,2.04063 -3.06281,1.73435 -6.99261,4.3029 -9.08242,5.93633 -0.74064,0.5789 -3.31474,2.70889 -5.72022,4.73333 -4.59514,3.86722 -5.91313,4.87947 -7.53836,5.7897 -1.64552,0.92159 -3.58129,1.43648 -4.64148,1.23458 z m 86.11419,-36.81066 c 3.55652,-1.5231 6.42495,-2.80806 6.37431,-2.85546 -0.13121,-0.12282 -4.46715,-1.03712 -6.99171,-1.4743 -4.84718,-0.8394 -8.60593,-1.17996 -11.85195,-1.07385 -1.90742,0.0623 -4.15013,0.33039 -4.48234,0.5357 -0.063,0.0389 0.65777,0.52765 1.60163,1.08607 2.96628,1.75493 4.21265,2.67953 7.50246,5.56558 0.66991,0.58769 1.25473,1.04985 1.29961,1.02702 0.0449,-0.0228 2.9915,-1.28767 6.54799,-2.81076 z m 37.81415,36.37945 c -0.94574,-0.27313 -1.54242,-1.32063 -1.71571,-3.01205 -0.13078,-1.27655 0.20257,-1.66982 2.95327,-3.48409 1.73991,-1.14758 2.49214,-1.77216 2.76134,-2.29273 0.0977,-0.18894 0.17765,-0.37199 0.17765,-0.40679 0,-0.0348 -0.23672,-0.1262 -0.52604,-0.20313 -1.25533,-0.33377 -1.77619,-0.97042 -1.66617,-2.03652 0.0816,-0.79083 1.06722,-2.95076 1.4367,-3.14849 l 0.26262,-0.14055 -0.29285,-0.43098 c -0.19219,-0.28282 -0.2719,-0.54057 -0.2319,-0.74981 0.0541,-0.28321 0.10403,-0.31024 0.44647,-0.24187 0.92857,0.1854 1.87735,0.77942 2.99696,1.87634 0.61939,0.60685 1.3691,1.43027 1.666,1.82982 0.47406,0.63794 0.54575,0.81946 0.58844,1.48972 0.0846,1.32811 -0.39169,2.00592 -1.53092,2.17881 -0.52784,0.0801 -1.64499,-0.0193 -2.05114,-0.18249 -0.16177,-0.065 -0.21743,0.0257 -0.28269,0.46095 -0.12222,0.81503 -0.72017,1.94818 -1.32711,2.51498 -0.29724,0.27758 -0.9268,0.74159 -1.399,1.03112 -1.0276,0.63009 -3.16406,2.22682 -3.16406,2.36475 0,0.18105 0.79731,0.38185 1.80619,0.45488 1.56765,0.11349 2.62961,-0.22171 4.32057,-1.36375 1.01429,-0.68503 3.46012,-3.16511 4.20151,-4.26036 0.59796,-0.88337 0.73056,-1.00433 0.86409,-0.78828 0.0989,0.15998 -1.20051,2.74651 -1.9948,3.9708 -0.98027,1.51096 -2.80531,3.28043 -3.9991,3.87733 -1.42738,0.7137 -3.22458,1.00306 -4.30032,0.69239 z m 7.67313,-10.70923 c 0.11913,-0.0336 0.21418,-0.0992 0.21122,-0.14568 -0.003,-0.0464 -0.43462,-0.42909 -0.95924,-0.85027 l -0.95385,-0.76578 -0.0932,0.7039 c -0.0512,0.38714 -0.0664,0.77485 -0.0337,0.86158 0.13304,0.35275 0.96036,0.44154 1.82872,0.19625 z m -2.69524,-0.90477 c 0.40633,-0.78575 0.12162,-1.61519 -0.5544,-1.61519 -0.3561,0 -1.32533,0.6297 -1.44359,0.93787 -0.14269,0.37185 0.79481,1.03401 1.47195,1.03967 0.24973,0.002 0.3862,-0.0919 0.52604,-0.36235 z m -106.56524,11.41403 c -1.97143,-0.49361 -2.02579,-4.24221 -0.11809,-8.14366 0.67795,-1.38648 2.53571,-4.21001 3.40429,-5.17402 0.81189,-0.90111 2.38964,-2.04291 2.44593,-1.77009 0.0212,0.10284 -0.38517,0.67771 -0.90307,1.27748 -2.32133,2.68827 -3.65524,5.26975 -3.65253,7.06863 0.003,1.70533 1.11905,2.60458 2.3156,1.86507 0.38925,-0.24057 0.44433,-0.24661 0.62265,-0.0683 0.17833,0.17833 0.12386,0.34126 -0.61586,1.84202 -1.30805,2.65379 -2.18532,3.43175 -3.49892,3.10285 z m 123.18442,-0.0354 c -0.86812,-0.22008 -1.7141,-0.74989 -2.69727,-1.6892 -1.15739,-1.10577 -1.84981,-2.14873 -2.30535,-3.47248 -0.29429,-0.85519 -0.33082,-1.14254 -0.32684,-2.5718 0.003,-1.02735 0.0782,-1.93829 0.20835,-2.51977 0.66047,-2.95042 2.37232,-6.17064 4.89397,-9.20621 0.55067,-0.6629 1.00123,-1.24091 1.00123,-1.28447 0,-0.0435 -0.27265,-0.44804 -0.60588,-0.89886 -0.33323,-0.45081 -0.67623,-1.05638 -0.76222,-1.3457 -0.086,-0.28931 -0.22182,-0.52603 -0.30181,-0.52603 -0.08,0 -0.415,0.73799 -0.74443,1.63999 -0.32942,0.90199 -0.93037,2.30319 -1.3354,3.11376 -0.88584,1.77278 -1.892,2.88356 -3.18881,3.52041 -2.09941,1.03101 -4.93206,0.9732 -6.77988,-0.13837 -2.99435,-1.80127 -4.4573,-6.81946 -3.99556,-13.70557 0.0753,-1.12324 0.16957,-2.65493 0.20945,-3.40375 l 0.0725,-1.3615 -0.26544,0.39558 c -0.34675,0.51676 -0.91272,2.19415 -1.16117,3.44138 -0.24407,1.22527 -0.73141,4.90531 -1.07361,8.10712 -0.32833,3.07205 -0.70489,4.62696 -1.51373,6.25052 -0.8144,1.63472 -1.66275,2.25556 -2.90674,2.12716 -2.61824,-0.27022 -4.51389,-2.92004 -5.84063,-8.16434 -0.58571,-2.31512 -0.84807,-4.09253 -0.94714,-6.41634 -0.0811,-1.90308 0.0815,-4.27356 0.35571,-5.1841 l 0.16772,-0.55698 0.20824,0.39611 c 0.15782,0.30017 0.20829,0.7199 0.2084,1.73282 0,3.73038 1.22801,10.05477 2.31058,11.90377 0.99535,1.70001 2.39336,2.37941 3.61439,1.75648 0.58017,-0.29598 1.03617,-0.88179 1.52749,-1.9623 0.67774,-1.49053 0.84521,-2.15213 1.02884,-4.06446 0.33747,-3.51436 0.9224,-7.90442 1.1738,-8.80961 0.81133,-2.92127 3.02127,-7.36445 4.25367,-8.55218 0.42071,-0.40547 0.44729,-0.4134 0.74063,-0.22119 0.4061,0.26609 0.88156,1.27139 1.21705,2.57336 l 0.27449,1.06521 -0.64452,2.78321 c -0.91353,3.94485 -1.05565,4.96548 -1.0565,7.58742 0,1.8976 0.039,2.37472 0.26697,3.21809 0.5771,2.13465 1.69451,3.71814 3.08284,4.36871 0.64535,0.30241 0.84535,0.33389 2.07566,0.32668 1.52808,-0.009 2.56303,-0.29371 3.87534,-1.06627 1.65581,-0.97478 3.14143,-2.95016 3.49612,-4.64869 0.34154,-1.63556 -0.0738,-4.30678 -1.23688,-7.95396 -0.82403,-2.58412 -1.815,-6.0485 -2.04526,-7.1502 -0.18157,-0.86868 -0.17801,-0.93476 0.10318,-1.91848 0.16017,-0.56034 0.38991,-1.42868 0.51053,-1.92965 l 0.21928,-0.91085 0.42973,0.0697 c 0.5372,0.0872 0.62683,0.20289 1.45305,1.87573 1.25062,2.53208 2.45504,6.67682 3.52481,12.12973 0.77751,3.96322 0.83993,4.22055 1.20882,4.98333 0.51582,1.0666 1.84824,2.34445 3.09553,2.96873 1.26788,0.63459 2.15185,0.82299 3.47519,0.74062 0.81482,-0.0507 1.18996,-0.14337 1.80372,-0.44552 0.4262,-0.20982 0.87707,-0.49438 1.00194,-0.63235 0.22086,-0.24404 0.21763,-0.28195 -0.11874,-1.39549 -0.51778,-1.71409 -2.01893,-5.8822 -3.29276,-9.14276 -1.17583,-3.00969 -2.89137,-7.59004 -3.32573,-8.87942 l -0.25104,-0.74521 0.50497,-2.14252 c 0.27774,-1.17838 0.51562,-2.15348 0.52861,-2.16691 0.0373,-0.0385 2.38877,2.5832 3.96288,4.41834 1.34633,1.56959 1.43338,1.70334 1.4353,2.20531 0.002,0.61751 0.0443,0.61733 -1.40874,0.006 -0.4696,-0.19759 -0.87505,-0.33801 -0.90101,-0.31204 -0.026,0.026 0.42366,1.19168 0.99918,2.59048 2.1035,5.11267 3.41047,8.85965 3.91938,11.23661 0.51738,2.41647 0.16917,5.01918 -0.96539,7.2159 -1.49379,2.89226 -3.72778,3.99936 -6.77795,3.35897 -1.16689,-0.24499 -2.46113,-0.90593 -3.24503,-1.65716 l -0.64579,-0.61888 -0.63387,0.70509 c -0.95887,1.0666 -3.00447,4.19344 -3.76469,5.75457 -0.91392,1.87679 -1.23159,3.05174 -1.22831,4.54291 0.002,0.92328 0.0625,1.32838 0.2817,1.886 0.66822,1.70029 1.66572,2.54207 3.15388,2.66152 0.98831,0.0793 1.82604,-0.15794 3.47366,-0.98386 2.6205,-1.31359 4.67568,-2.72824 12.44839,-8.56857 4.72936,-3.55359 5.56474,-4.13361 6.86939,-4.76951 1.85079,-0.9021 2.78628,-1.2195 4.12033,-1.398 l 1.04631,-0.13999 -0.0811,-1.05847 c -0.0446,-0.58216 -0.19567,-1.74176 -0.33578,-2.57688 -0.2231,-1.32972 -0.23716,-1.65063 -0.11317,-2.58246 0.24802,-1.86365 0.83749,-3.46453 2.13604,-5.80096 1.73006,-3.11285 3.06976,-4.39774 4.79885,-4.60252 0.58395,-0.0692 0.61174,-0.0571 1.157,0.50397 0.30727,0.31616 1.15186,1.46442 1.87687,2.55169 0.77833,1.16723 1.55513,2.18129 1.89673,2.47601 0.74011,0.63856 1.81672,1.18072 2.71738,1.36842 0.92506,0.19279 2.58296,0.0794 3.63514,-0.24858 1.29862,-0.40482 2.09313,-1.03898 4.11299,-3.28291 1.01297,-1.12533 1.90903,-2.04606 1.99125,-2.04606 0.11498,0 0.10914,0.26429 -0.0253,1.1449 -0.32408,2.1227 -0.0576,3.41552 0.81602,3.95878 0.37059,0.23045 0.62746,0.28044 1.44115,0.28044 0.82668,0 1.10321,-0.0555 1.67471,-0.33618 0.37648,-0.18491 0.83532,-0.4936 1.01964,-0.68598 0.18431,-0.19238 0.86811,-1.35 1.51955,-2.57248 1.20799,-2.26693 1.60982,-2.86121 1.70653,-2.52386 0.39618,1.38214 0.5343,1.7661 0.85135,2.36684 0.5352,1.01412 1.82879,2.21849 2.75873,2.56846 0.96367,0.36268 1.95597,0.30446 2.89154,-0.16963 l 0.65882,-0.33384 -0.0559,-0.58006 c -0.0347,-0.36022 -0.41973,-1.40092 -1.01594,-2.74607 -1.21829,-2.74868 -4.06331,-9.81796 -4.83178,-12.00596 -0.32278,-0.91902 -0.76961,-1.97727 -0.99295,-2.35169 -0.22335,-0.37441 -0.49854,-0.96511 -0.61153,-1.31267 l -0.20544,-0.63193 0.89811,-2.25851 c 0.68732,-1.72841 0.92897,-2.21783 1.02953,-2.0852 0.0723,0.0953 0.58077,0.72765 1.13,1.40516 0.54921,0.67752 1.70377,2.15859 2.56567,3.29126 l 1.56709,2.05942 -0.18663,0.3741 -0.18662,0.37411 -1.00016,-0.43342 c -1.67336,-0.72516 -1.67956,-0.75077 1.03107,4.26522 1.62993,3.01617 2.40822,4.79827 2.91217,6.66818 0.28967,1.07477 0.32888,1.4522 0.33232,3.19891 0.005,2.44872 -0.24075,3.5735 -1.21603,5.56977 -0.78403,1.60479 -1.44311,2.4028 -2.35158,2.84728 -0.98979,0.48426 -1.8084,0.52656 -2.81482,0.14545 -1.7371,-0.6578 -3.84472,-2.14171 -4.42639,-3.1165 -0.0971,-0.1628 -0.16937,-0.19637 -0.21098,-0.0981 -0.217,0.51267 -1.49461,2.38229 -1.82085,2.66459 -0.64177,0.55533 -1.98551,1.17236 -2.91478,1.33843 -0.75271,0.13452 -0.98459,0.12771 -1.71096,-0.0502 -0.46214,-0.1132 -0.96657,-0.30276 -1.12094,-0.42123 -0.15436,-0.11848 -0.62902,-0.81065 -1.0548,-1.53817 l -0.77412,-1.32275 -1.04934,0.92457 c -2.3793,2.09642 -4.16989,3.01506 -5.88468,3.01908 -1.65215,0.004 -3.50948,-0.70337 -4.34757,-1.65548 -0.43064,-0.48924 -1.50735,-2.32187 -2.17023,-3.69387 -0.72047,-1.49121 -1.47505,-1.9213 -2.74988,-1.56736 -1.35297,0.37563 -3.29505,3.4368 -3.28433,5.17688 0.0115,1.86709 2.69048,4.30028 7.64084,6.93976 2.0214,1.07779 1.9575,0.97479 1.75447,2.82751 -0.17103,1.56074 -0.45405,2.7989 -0.71245,3.11688 -0.20617,0.25369 -0.21715,0.25048 -2.32569,-0.6805 -2.82029,-1.24524 -3.77488,-1.48358 -5.55537,-1.38706 -2.12757,0.11533 -4.33237,0.74572 -6.68373,1.91098 -2.49549,1.23668 -3.50532,1.94453 -10.08749,7.07083 -2.14437,1.67007 -4.42797,3.39197 -5.07469,3.82645 -1.45356,0.97654 -3.35257,1.91046 -4.57959,2.25221 -1.06191,0.29576 -2.81323,0.41854 -3.49709,0.24517 z m -82.95824,-1.32611 c -0.47465,-0.11884 -0.96135,-0.57124 -1.22174,-1.13562 -0.39401,-0.85403 -0.34977,-2.77248 0.0987,-4.28157 1.04846,-3.52779 4.23968,-8.27468 6.43276,-9.56863 0.3965,-0.23394 0.46414,-0.24348 0.52895,-0.0746 0.048,0.12502 -0.12161,0.39866 -0.47844,0.77205 -2.49563,2.61139 -4.05146,5.49326 -4.05882,7.51814 -0.003,0.88617 0.33326,1.76776 0.77827,2.0391 0.53209,0.32443 0.86375,0.30462 1.45547,-0.087 0.79748,-0.52776 0.86926,-0.27583 0.31814,1.11662 -1.16509,2.94368 -2.34668,4.0787 -3.85332,3.70146 z m 134.23087,-0.17056 c 0,-0.10965 0.11711,-0.77802 0.25928,-1.48527 0.25125,-1.24982 0.27644,-1.30452 0.89736,-1.94939 1.09301,-1.13516 3.04487,-2.71853 4.7514,-3.8544 3.60875,-2.40197 7.36296,-3.93738 11.8317,-4.83894 1.01498,-0.20478 1.86685,-0.3509 1.89303,-0.32472 0.0262,0.0262 -0.16863,0.6557 -0.43291,1.39893 l -0.48051,1.35133 -1.80746,0.45338 c -6.54106,1.64075 -11.47666,4.27323 -15.89076,8.47558 -0.61702,0.58743 -1.02158,0.89388 -1.02113,0.7735 z m -88.43492,-0.20076 c -1.70252,-0.42627 -2.00055,-3.38908 -0.68044,-6.7644 1.13311,-2.89717 3.91666,-6.71457 5.91035,-8.10553 0.34618,-0.24153 0.41316,-0.25394 0.47672,-0.0883 0.0485,0.1263 -0.19043,0.48114 -0.69341,1.02992 -0.87891,0.95891 -1.87502,2.26854 -2.46093,3.23547 -1.4866,2.45337 -1.79998,4.93306 -0.75543,5.9776 0.44901,0.44902 0.95804,0.45539 1.6156,0.0203 0.44336,-0.29341 0.51907,-0.30934 0.68437,-0.14403 0.16531,0.1653 0.13532,0.30106 -0.27105,1.22724 -1.32621,3.02259 -2.34347,3.98295 -3.82578,3.6118 z m 67.16405,-1.69941 c 0.0436,-0.0442 0.82333,-0.42852 1.73283,-0.85394 4.43117,-2.0727 7.63261,-4.1669 12.11244,-7.92328 2.25889,-1.8941 3.43674,-2.7571 3.9329,-2.88163 0.20116,-0.0505 0.57633,0.0723 1.19759,0.39187 0.72853,0.37479 0.98669,0.45 1.326,0.38634 0.46097,-0.0865 1.13066,-0.67252 1.74317,-1.52541 0.43873,-0.61093 0.66686,-0.55182 0.60579,0.15698 -0.0448,0.51982 0.14952,0.79549 0.5607,0.79549 0.6916,0 1.19196,-0.52452 1.57195,-1.64784 0.0428,-0.12634 0.13694,-0.18674 0.21553,-0.13817 0.21272,0.13147 0.0723,1.88407 -0.19269,2.40487 -0.68924,1.35464 -1.81523,1.73114 -2.77131,0.92666 l -0.36977,-0.31115 -0.45154,0.52771 c -0.52243,0.61059 -1.36115,1.20847 -1.69528,1.20847 -0.12695,0 -0.79286,-0.22279 -1.4798,-0.4951 -0.68694,-0.2723 -1.38373,-0.49509 -1.54844,-0.49509 -0.32141,0 -1.42773,1.05661 -3.89872,3.72351 -2.68219,2.89486 -5.71863,4.53428 -9.94016,5.36686 -1.7846,0.35197 -2.75932,0.49272 -2.65119,0.38285 z m -196.939874,-1.19728 c -0.714789,-0.39447 -1.919788,-0.98016 -2.677783,-1.30154 l -1.378166,-0.58431 0.242331,-0.56488 c 0.133282,-0.31068 0.549374,-1.42819 0.92465,-2.48335 0.375271,-1.05516 0.699861,-1.93617 0.721305,-1.95778 0.02143,-0.0216 0.543643,0.12977 1.160446,0.33642 1.301488,0.43603 2.674971,1.0998 3.517049,1.69969 l 0.59135,0.42128 0.222782,-0.5283 c 0.122531,-0.29056 0.461094,-1.18231 0.752362,-1.98167 0.605777,-1.66253 0.39193,-1.56134 2.112317,-0.99954 0.960512,0.31365 2.870976,1.22496 3.485814,1.66276 0.193128,0.13752 0.351142,0.36175 0.351142,0.49828 0,0.45517 -1.441216,4.39634 -1.738771,4.75488 -0.09085,0.10946 -0.491829,-0.0384 -1.571752,-0.57946 -1.483838,-0.74347 -3.504405,-1.62758 -3.569944,-1.56204 -0.02012,0.0201 -0.210376,0.50795 -0.4228,1.08408 -0.476238,1.29161 -1.058297,2.52498 -1.266492,2.68365 -0.10905,0.0831 -0.548677,-0.0975 -1.45584,-0.59817 z m 57.863794,-8.4904 c -0.47028,-0.11775 -0.96033,-0.56913 -1.19579,-1.10143 -1.15212,-2.60455 0.97307,-8.11757 4.62007,-11.98508 1.16729,-1.23786 2.41891,-2.16098 2.53164,-1.86719 0.0513,0.13381 -0.22429,0.51007 -0.86488,1.18056 -1.65812,1.73553 -2.87233,3.52324 -3.49838,5.15073 -0.25553,0.66429 -0.33128,1.0868 -0.34163,1.9056 -0.0152,1.2071 0.20014,1.79718 0.78138,2.14052 0.50225,0.29669 0.92645,0.26338 1.50277,-0.11802 0.98025,-0.6487 0.92291,-0.0617 -0.21744,2.22576 -1.01131,2.02863 -2.03442,2.78987 -3.31774,2.46855 z m 172.60124,-2.32538 c -0.71479,-0.36425 -1.92172,-0.92254 -2.68205,-1.24064 l -1.38242,-0.57836 0.55221,-1.5647 c 1.21786,-3.45087 1.29364,-3.6203 1.58032,-3.53362 2.13608,0.64588 5.15003,2.23271 5.15003,2.71146 0,0.53852 -1.44959,4.39557 -1.77538,4.72391 -0.10877,0.10962 -0.45496,-0.0147 -1.44271,-0.51805 z m -252.249055,-0.72505 c 0,-0.10457 0.512894,-0.37964 1.290972,-0.69235 2.924423,-1.17535 6.492467,-3.11223 8.947904,-4.8573 3.891226,-2.76549 6.194215,-5.14415 8.377942,-8.6532 1.880876,-3.02242 2.278167,-3.46814 2.898305,-3.25165 0.719752,0.25125 1.620801,2.12336 1.721547,3.57686 0.07654,1.10424 -0.122934,1.88188 -0.530353,2.06751 -0.477912,0.21775 -1.511751,-0.0807 -2.650697,-0.76524 l -1.00165,-0.602 -0.483727,0.96208 c -0.657431,1.30757 -2.000661,3.28672 -3.217716,4.74109 -2.966693,3.54515 -7.519931,6.09897 -12.815183,7.18777 -2.216347,0.45572 -2.537344,0.49195 -2.537344,0.28643 z m 22.516558,-13.97047 c -0.206923,-0.40414 -1.126974,-1.33055 -1.321431,-1.33055 -0.239384,0 -0.89638,0.3578 -0.89638,0.48817 0,0.16359 0.768567,0.60907 1.51294,0.87693 0.837142,0.30125 0.87582,0.29935 0.704871,-0.0345 z m 32.156067,11.29084 c -1.35757,-0.34258 -2.08907,-1.22777 -2.26539,-2.74138 -0.13605,-1.16782 0.55504,-2.59887 2.49989,-5.17664 l 0.88713,-1.17585 -0.82182,-0.0391 c -1.03362,-0.0491 -2.20021,0.25314 -2.88135,0.74655 l -0.51108,0.37023 0.0864,-0.35321 c 0.35805,-1.46409 0.45689,-1.65882 1.10211,-2.17126 1.46701,-1.16512 2.34695,-1.36993 4.66535,-1.08586 1.636,0.20044 1.56488,0.10758 0.95683,1.24932 -0.41695,0.78291 -0.75339,1.1976 -1.61262,1.98766 -1.26488,1.16306 -2.50313,2.65441 -2.84644,3.42828 -0.62991,1.41987 0.37346,2.36837 2.50033,2.36359 1.82035,-0.004 3.34983,-0.64722 4.79392,-2.01577 0.99456,-0.94254 1.03707,-0.86914 0.34413,0.59421 -0.78922,1.66669 -2.37027,3.21606 -3.85195,3.77479 -0.81318,0.30663 -2.31966,0.42753 -3.04541,0.24439 z m 79.89613,-0.41863 c -1.30114,-0.42432 -1.90409,-1.2217 -2.07464,-2.74368 -0.0718,-0.64093 -0.0379,-0.86709 0.22954,-1.52918 0.39617,-0.98079 1.23341,-2.36885 2.24483,-3.72163 0.88763,-1.18721 0.88353,-1.20066 -0.374,-1.22539 -0.86803,-0.0171 -1.79307,0.2842 -2.47808,0.80709 l -0.57856,0.44162 0.0861,-0.35203 c 0.33765,-1.38077 0.46794,-1.65371 1.02232,-2.14169 1.25862,-1.10789 2.38945,-1.38408 4.60999,-1.12593 1.89585,0.22041 1.82184,0.13468 1.16049,1.34399 -0.42787,0.7824 -0.71367,1.1399 -1.19768,1.49807 -0.94009,0.69568 -2.82062,2.72164 -3.15502,3.39902 -0.16028,0.32466 -0.32058,0.80772 -0.35622,1.07345 -0.22558,1.68186 3.39569,2.18476 5.95752,0.82736 0.41434,-0.21954 1.15958,-0.78416 1.65608,-1.25471 1.00958,-0.9568 1.02142,-0.89366 0.14742,0.78558 -0.90726,1.74318 -2.37206,3.17145 -3.83342,3.73785 -0.85629,0.33188 -2.33508,0.41878 -3.06665,0.18021 z m -45.71873,-3.22944 c 0.0506,-1.95572 -0.12081,-4.90615 -0.42775,-7.36428 -0.10626,-0.85094 -1.60377,-10.40311 -3.32781,-21.22703 -3.02196,-18.97256 -3.1521,-19.72659 -3.62094,-20.9795 -0.26748,-0.71479 -0.52247,-1.48433 -0.56664,-1.7101 -0.0601,-0.30696 0.12592,-1.13412 0.73751,-3.27998 0.4498,-1.57822 0.85646,-2.94143 0.90369,-3.02934 0.0508,-0.0946 1.2063,2.11012 2.83202,5.40381 l 2.74615,5.56365 v 0.90628 0.90629 l -1.23372,-1.22909 c -0.67855,-0.67601 -1.25505,-1.20409 -1.28112,-1.17352 -0.0261,0.0305 1.22387,8.27099 2.77764,18.31206 1.55377,10.04107 2.88945,18.89702 2.96818,19.67988 0.19602,1.94911 0.0752,5.03829 -0.25899,6.62185 -0.14366,0.68075 -0.49517,1.93395 -0.78113,2.78489 l -0.51992,1.54716 -0.49694,0.0366 -0.49694,0.0366 z m 74.28258,-0.48067 c 0,-4.33724 0.0369,-4.05302 -3.64522,-28.04876 -2.8256,-18.41376 -2.93092,-19.04298 -3.4182,-20.42252 -0.84409,-2.38975 -0.84274,-2.25722 -0.0564,-5.51965 0.37583,-1.55926 0.7266,-2.93699 0.77948,-3.06162 0.0724,-0.17063 0.79091,1.14726 2.90881,5.33537 l 2.81266,5.56198 v 0.91283 0.91284 l -1.23374,-1.22909 c -0.67854,-0.67601 -1.25524,-1.20409 -1.28155,-1.17352 -0.0263,0.0305 1.23447,8.43808 2.80174,18.68338 l 2.84956,18.62781 0.005,2.97055 c 0.006,3.39692 -0.13327,4.31854 -1.07388,7.11694 l -0.52003,1.54716 -0.46415,0.0384 -0.46415,0.0384 v -2.29053 z m 45.05204,-0.039 c -0.002,-4.36572 0.057,-3.91527 -3.66145,-27.75448 -2.9793,-19.10032 -3.04933,-19.51223 -3.53396,-20.78666 -0.85078,-2.23729 -0.85118,-2.15618 0.027,-5.48407 0.41878,-1.58704 0.79992,-2.95654 0.84695,-3.04335 0.0503,-0.0929 1.24422,2.13348 2.90026,5.40826 l 2.81472,5.56608 -0.0365,0.89179 -0.0365,0.89179 -1.27279,-1.21092 c -0.70004,-0.66601 -1.29023,-1.18957 -1.31155,-1.16347 -0.0213,0.0261 1.267,8.26287 2.86291,18.30394 l 2.90166,18.25649 0.0143,3.77507 c 0.0154,4.06503 -0.0986,5.14122 -0.80667,7.61203 l -0.28375,0.99018 -0.71169,0.0371 -0.7117,0.0371 -10e-4,-2.32692 z m -107.66048,-6.24352 c -1.04383,-0.5275 -2.24821,-1.07568 -2.67641,-1.21818 l -0.77854,-0.25908 0.65103,-1.716 c 0.35807,-0.9438 0.77327,-2.08334 0.92268,-2.5323 0.25858,-0.77703 0.28754,-0.81264 0.60198,-0.74016 1.41695,0.32659 3.52919,1.26584 4.61417,2.0518 0.47177,0.34175 0.4999,0.39559 0.42243,0.80852 -0.15199,0.81019 -1.55409,4.41313 -1.75641,4.5134 -0.0567,0.0281 -0.95711,-0.3805 -2.00093,-0.908 z m -82.920496,-10.9781 c -0.33483,-0.86351 -2.343224,-4.97081 -2.430629,-4.97081 -0.03364,0 -0.170289,0.24668 -0.30366,0.54819 -0.562982,1.27271 -1.934832,1.24096 -3.18947,-0.0738 -0.643529,-0.67439 -0.842943,-1.27531 -0.742403,-2.2372 0.156269,-1.49512 0.771065,-2.26879 1.910081,-2.40369 0.806698,-0.0956 1.641506,0.27721 2.37823,1.06191 0.578672,0.61636 1.60629,2.46862 2.117257,3.81631 0.161312,0.42546 0.321427,0.773 0.355811,0.77229 0.03438,-9.3e-4 0.244894,-0.93364 0.467803,-2.07319 0.965638,-4.93656 2.256535,-7.75428 3.674376,-8.02027 0.669234,-0.12554 1.123695,0.12252 1.454455,0.7939 0.243089,0.49343 0.283208,0.76772 0.283208,1.93637 0,1.16565 -0.04201,1.4544 -0.292054,2.00741 -0.4138,0.91516 -0.566369,1.01248 -0.981095,0.62581 -0.727176,-0.67799 -1.290453,-0.76119 -1.867277,-0.27583 -0.810455,0.68195 -1.298841,2.30223 -2.003581,6.64708 -0.229116,1.41255 -0.446775,2.56828 -0.48369,2.56828 -0.03691,0 -0.193226,-0.32523 -0.347362,-0.72273 z m 83.092686,-2.30873 c -1.00486,-0.35796 -1.43656,-0.92051 -1.69537,-2.20924 -0.17004,-0.84664 -0.0211,-1.55217 1.07566,-5.09433 0.95383,-3.08065 1.16879,-4.09055 1.25371,-5.88977 0.0902,-1.91125 -0.11919,-3.02967 -0.85529,-4.56835 -0.42174,-0.88157 -0.69777,-1.24618 -1.70904,-2.25744 l -1.20606,-1.20606 -0.13863,-2.13649 c -0.0762,-1.17507 -0.17011,-2.37881 -0.20859,-2.67498 l -0.07,-0.53848 0.57628,0.39649 c 2.29034,1.5758 4.39367,4.91565 5.02645,7.98147 0.38526,1.86664 0.24796,4.96147 -0.29984,6.75848 l -0.17323,0.56824 0.78968,0.34402 c 2.10481,0.91695 3.14821,2.84965 2.97573,5.51196 -0.10959,1.69142 -0.92489,3.3847 -2.12514,4.41364 -0.83619,0.71684 -2.18397,0.96861 -3.21635,0.60084 z m 2.60325,-3.15195 c 0.4023,-0.20136 1.03329,-0.67214 1.40218,-1.04619 l 0.67071,-0.6801 -0.35481,-0.51199 c -0.53867,-0.77731 -1.38401,-1.46766 -2.383,-1.94611 -0.88743,-0.42502 -0.90534,-0.42809 -1.16363,-0.19944 -1.1655,1.0317 -1.55751,3.18666 -0.75351,4.14217 0.6099,0.72482 1.45808,0.8042 2.58206,0.24166 z m 128.74352,2.64427 c -0.25528,-0.11028 -0.46387,-0.23633 -0.46354,-0.28011 0,-0.0438 0.52714,-0.26312 1.1707,-0.48743 0.64354,-0.22431 1.73292,-0.65399 2.42084,-0.95485 1.33079,-0.58202 3.27732,-1.78508 3.12251,-1.92989 -0.40721,-0.38091 -3.84387,-0.69187 -4.84305,-0.43821 l -0.41819,0.10616 0.0845,-0.72503 c 0.14407,-1.23589 0.4044,-1.94658 0.93311,-2.54721 0.85876,-0.97562 1.89875,-1.21232 4.00239,-0.91095 1.345,0.19268 2.87225,0.63997 4.21553,1.23461 0.5661,0.2506 0.70787,0.36636 0.64602,0.52752 -0.25662,0.66873 -2.51073,3.5956 -3.07177,3.98857 -0.40809,0.28584 -3.66,1.73222 -4.79757,2.13387 -1.30521,0.46082 -2.35966,0.56023 -3.0015,0.28295 z m -16.86404,-4.90238 c -0.54935,-0.19114 -1.14367,-0.81163 -1.39091,-1.45215 -0.31159,-0.80722 -0.27795,-2.81784 0.0711,-4.25065 0.48667,-1.99771 1.19086,-3.47603 2.93164,-6.15442 1.6781,-2.58193 3.22904,-4.29533 4.62839,-5.1132 0.35123,-0.20528 0.39013,-0.20707 0.46148,-0.0211 0.0532,0.13861 -0.11834,0.40618 -0.54045,0.84304 -3.7072,3.83682 -5.49923,8.02029 -4.41463,10.30592 0.38268,0.80643 1.50664,1.03952 2.32725,0.48264 0.36136,-0.24522 0.50761,-0.2832 0.69802,-0.1813 0.13249,0.0709 0.24089,0.1452 0.24089,0.16511 0,0.12149 -0.7149,1.76045 -1.11145,2.54807 -1.24469,2.47222 -2.43799,3.33723 -3.90135,2.82807 z m -36.51818,-0.57903 c -0.9732,-0.44206 -1.24386,-1.32573 -1.38338,-4.51629 l -0.0967,-2.21164 -0.55698,1.0358 -0.55698,1.03579 -0.0383,-0.60263 c -0.031,-0.48742 0.0635,-0.84115 0.49441,-1.85029 0.45193,-1.05837 0.6587,-1.37536 1.36291,-2.08943 0.45659,-0.46298 0.88904,-0.84177 0.961,-0.84177 0.0876,0 0.0998,0.23493 0.0369,0.71169 -0.15127,1.14642 -0.10444,3.9915 0.0758,4.60307 0.33499,1.13679 1.24352,1.63662 2.13599,1.1751 0.88054,-0.45534 1.03812,-1.72945 0.55007,-4.44761 l -0.28891,-1.60905 0.44941,-0.83464 c 0.24717,-0.45905 0.49315,-0.835 0.54662,-0.83546 0.13467,-9.4e-4 0.54338,0.98267 0.76058,1.83078 0.0994,0.38815 0.2708,1.34626 0.38088,2.12912 0.11009,0.78286 0.25609,1.60258 0.32446,1.8216 0.17421,0.55802 0.76717,1.02518 1.30127,1.02518 0.57565,0 0.84469,-0.16078 1.03405,-0.61795 0.20423,-0.49304 0.11049,-1.23344 -0.42145,-3.32888 l -0.42065,-1.65702 0.56229,-1.18975 0.56229,-1.18975 0.35721,1.11395 c 0.69996,2.18279 1.01021,4.02494 1.02142,6.06487 0.008,1.50281 -0.0332,1.98115 -0.21762,2.51024 -0.72455,2.07883 -2.7314,2.48799 -4.44694,0.90666 l -0.54316,-0.50067 -0.27734,0.66911 c -0.64729,1.56173 -2.28782,2.3173 -3.66911,1.68987 z m -11.3315,-1.16929 c -0.42611,-0.22498 -0.62677,-0.44661 -0.91682,-1.01259 -0.35368,-0.69015 -0.37051,-0.79261 -0.35434,-2.1565 0.013,-1.09706 0.0909,-1.71411 0.33323,-2.63864 0.98451,-3.7566 4.13127,-8.52049 6.9373,-10.50239 0.7972,-0.56307 1.06716,-0.64865 1.06716,-0.33834 0,0.0712 -0.39528,0.55282 -0.87841,1.07014 -3.59689,3.85153 -5.19169,7.73148 -4.07643,9.91755 0.47721,0.9354 1.47226,1.14765 2.27567,0.48542 l 0.47153,-0.38869 0.24928,0.24928 0.24928,0.24928 -0.67808,1.42652 c -1.64721,3.46536 -3.00633,4.5223 -4.67937,3.63896 z m -38.18427,-0.31895 c -0.99715,-0.45286 -1.24274,-1.24538 -1.38396,-4.46611 l -0.0895,-2.04065 -0.55698,0.92669 -0.55697,0.92669 -0.0377,-0.58808 c -0.0319,-0.49778 0.0607,-0.79219 0.60347,-1.91744 0.51936,-1.07673 0.79322,-1.4784 1.44111,-2.11367 0.43995,-0.43137 0.82077,-0.76345 0.84627,-0.73795 0.0255,0.0255 -0.001,0.76787 -0.0591,1.64969 -0.11758,1.78673 -0.006,3.48832 0.27229,4.15451 0.28543,0.68315 0.78465,1.01274 1.42552,0.94115 1.51155,-0.16884 1.74954,-1.73649 0.8451,-5.5666 l -0.16831,-0.71275 0.50973,-0.80346 c 0.28035,-0.44191 0.55478,-0.80347 0.60982,-0.80347 0.32719,0 0.99644,2.37479 1.1967,4.24642 0.0714,0.66769 0.20608,1.39633 0.29921,1.61921 0.40301,0.96455 1.5111,1.25817 2.18919,0.58008 0.48875,-0.48876 0.47146,-0.79011 -0.18454,-3.21599 l -0.54635,-2.02034 0.56361,-1.19261 0.56362,-1.19261 0.35721,1.11396 c 0.72182,2.25091 1.01369,4.01651 1.02308,6.18863 0.008,1.83151 -0.0136,2.02943 -0.2864,2.63303 -0.80446,1.78004 -2.6974,2.00341 -4.38549,0.51751 l -0.54013,-0.47546 -0.27601,0.66592 c -0.64735,1.56185 -2.28767,2.31349 -3.67442,1.6837 z m -74.74697,-1.42322 c -0.48723,-0.21507 -0.73646,-0.50788 -1.06764,-1.25431 -0.25572,-0.57638 -0.39823,-2.13855 -0.47382,-5.19394 -0.008,-0.32743 -0.0687,-0.26159 -0.51262,0.55698 -0.6708,1.2369 -0.73081,1.28208 -0.73081,0.55016 0,-0.49006 0.13353,-0.88679 0.66444,-1.97418 0.63978,-1.31038 1.28138,-2.12381 2.15302,-2.72965 l 0.2801,-0.19469 -0.0944,0.90551 c -0.15454,1.48156 -0.11141,4.05819 0.079,4.71742 0.0943,0.3266 0.33174,0.76537 0.52761,0.97505 0.32176,0.34444 0.41054,0.37509 0.91997,0.31767 1.00878,-0.1137 1.53604,-0.91571 1.53448,-2.33411 -3.7e-4,-0.36651 -0.15867,-1.43527 -0.35171,-2.37501 l -0.35097,-1.70862 0.50617,-0.79786 c 0.2784,-0.43882 0.56018,-0.77986 0.62618,-0.75787 0.35849,0.1195 0.96474,2.39713 1.17245,4.40486 0.16933,1.63666 0.66555,2.36712 1.60245,2.35888 0.49189,-0.004 0.7649,-0.16406 0.98422,-0.57585 0.22159,-0.41606 0.17603,-0.80823 -0.34783,-2.99374 l -0.48572,-2.02637 0.57261,-1.12984 0.57262,-1.12983 0.41109,1.29098 c 0.89635,2.81496 1.26855,6.19822 0.85767,7.79619 -0.40679,1.58203 -1.17431,2.29423 -2.47632,2.29784 -0.87345,0.002 -1.41374,-0.22467 -2.21718,-0.93189 l -0.54014,-0.47545 -0.27601,0.66591 c -0.61663,1.48774 -2.27263,2.30467 -3.53883,1.74576 z m -19.202742,-0.66187 c 0.03335,-0.11913 0.09736,-0.75128 0.142268,-1.40478 l 0.08165,-1.18817 1.258516,-1.23649 c 6.04245,-5.9367 13.879138,-10.27223 22.671218,-12.54254 1.90656,-0.49231 5.75164,-1.27975 5.8362,-1.1952 0.0401,0.0401 -0.1704,1.19988 -0.38999,2.14872 -0.0499,0.21558 -0.2053,0.29817 -0.77396,0.41127 -1.89412,0.37673 -5.42418,1.29468 -7.17652,1.86616 -8.00421,2.61038 -14.61112,6.56608 -20.433858,12.23418 -0.634761,0.61789 -1.181567,1.12345 -1.215127,1.12345 -0.03354,0 -0.03373,-0.0975 -3.74e-4,-0.2166 z m 73.848442,-0.34501 c 0,-0.0191 0.33216,-0.83352 0.73813,-1.80978 l 0.73813,-1.775 1.21357,-1.17584 c 2.84428,-2.75588 6.43439,-5.26849 11.11085,-7.7762 5.09339,-2.73129 9.81645,-4.63531 14.48142,-5.83797 1.71063,-0.44101 5.2567,-1.15971 5.33511,-1.0813 0.0185,0.0185 -0.42453,0.78292 -0.98453,1.69868 -0.8455,1.38264 -1.08036,1.68081 -1.38477,1.75806 -0.20161,0.0512 -1.41396,0.34687 -2.69407,0.65711 -5.57315,1.35065 -12.04726,3.90396 -16.91918,6.6727 -4.35202,2.47327 -7.78815,4.98807 -10.82671,7.92372 -0.44437,0.42933 -0.80795,0.76494 -0.80795,0.74582 z m 82.09235,-1.94439 c -0.22125,-0.071 -0.40199,-0.16276 -0.40166,-0.20396 0,-0.0412 0.52713,-0.25846 1.17069,-0.48277 0.64355,-0.22431 1.73292,-0.65399 2.42084,-0.95485 1.323,-0.57861 3.27898,-1.78561 3.12251,-1.92685 -0.17908,-0.16167 -1.33961,-0.48043 -2.25883,-0.62043 -0.98603,-0.15017 -2.1933,-0.0823 -2.62247,0.14735 -0.25436,0.13613 -0.25772,0.12357 -0.17329,-0.64852 0.31744,-2.90291 1.76958,-4.0144 4.6054,-3.52502 1.49166,0.25742 4.99787,1.48974 4.99787,1.75658 0,0.38161 -1.63821,2.64646 -2.697,3.72866 -0.55539,0.56768 -2.00935,1.31553 -4.01352,2.06439 -2.07206,0.77422 -3.23179,0.96015 -4.15054,0.66542 z m 42.82954,-1.59706 c -0.28703,-0.61322 -0.89589,-1.81996 -1.35301,-2.68164 -0.79989,-1.50782 -0.83623,-1.55419 -0.96714,-1.23393 -0.32996,0.80724 -1.02319,1.19087 -1.86618,1.03272 -0.64111,-0.12027 -1.71835,-1.16638 -1.91151,-1.85628 -0.19307,-0.68959 -0.0781,-1.79084 0.26166,-2.50653 0.28131,-0.59254 1.01741,-1.03036 1.72472,-1.02585 1.38565,0.009 2.84288,1.65164 3.84965,4.33979 0.22681,0.60562 0.44652,1.10166 0.48823,1.10231 0.0417,4.7e-4 0.14535,-0.42963 0.23029,-0.9562 0.23804,-1.47563 1.0481,-4.56433 1.48292,-5.65436 0.51799,-1.29849 0.90816,-1.94434 1.49486,-2.47438 1.07296,-0.96935 2.00336,-0.68437 2.41758,0.7405 0.30892,1.06264 0.20618,2.26324 -0.28256,3.30189 -0.41105,0.87356 -0.51868,0.96162 -0.78423,0.64165 -0.46664,-0.56227 -1.37392,-0.70217 -1.89509,-0.29222 -0.88158,0.69343 -1.42404,2.3887 -1.87838,5.87015 -0.18657,1.42958 -0.37313,2.63705 -0.41457,2.68328 -0.0414,0.0462 -0.31019,-0.41768 -0.59724,-1.0309 z m -208.375718,-2.23444 c -0.255285,-0.0678 -0.46415,-0.15958 -0.46415,-0.20396 0,-0.0444 0.793693,-0.34819 1.763762,-0.67515 0.970069,-0.32696 2.310708,-0.86692 2.979198,-1.19992 1.298204,-0.64668 2.494642,-1.47721 2.342648,-1.62618 -0.05084,-0.0498 -0.510176,-0.20702 -1.020741,-0.34928 -1.231532,-0.34317 -3.063111,-0.46702 -3.716688,-0.25132 -0.27105,0.0895 -0.527485,0.12798 -0.569854,0.0856 -0.164405,-0.1644 0.214038,-2.02732 0.54564,-2.68599 0.417823,-0.82994 1.203456,-1.40347 2.208222,-1.61205 1.407244,-0.29215 4.245703,0.26504 6.332918,1.24314 l 1.026523,0.48105 -0.364667,0.7224 c -0.390404,0.77339 -1.563518,2.39113 -2.29628,3.1666 -0.306883,0.32476 -0.9622,0.71936 -2.085161,1.25556 -3.151971,1.50503 -5.263006,2.0262 -6.68137,1.64949 z m 155.593458,-2.26471 c 0.045,-0.61267 0.0818,-2.28361 0.0818,-3.71318 0,-2.09299 -0.0447,-2.79209 -0.22957,-3.58942 -0.49278,-2.12541 -1.40219,-3.89606 -2.76527,-5.38412 l -0.62359,-0.68074 0.16508,-1.79471 c 0.0908,-0.98709 0.16695,-1.92437 0.16922,-2.08284 0.004,-0.27895 0.0202,-0.27442 0.50681,0.14211 2.32055,1.98632 4.20071,6.50608 4.20071,10.09825 0,1.98354 -0.47116,4.67538 -1.22603,7.00465 l -0.36101,1.11396 z m -70.12832,-7.76634 c -0.22124,-0.071 -0.40199,-0.16276 -0.40165,-0.20397 3.7e-4,-0.0412 0.54338,-0.2614 1.20678,-0.48931 2.36026,-0.81088 5.9695,-2.80711 5.63829,-3.11848 -0.40655,-0.3822 -3.71352,-0.6874 -4.78885,-0.44196 l -0.48051,0.10967 0.0849,-0.72854 c 0.2368,-2.03086 0.91252,-3.04084 2.34878,-3.51068 0.84005,-0.2748 2.63484,-0.0999 4.33059,0.42197 1.45081,0.4465 2.89228,0.99625 3.08161,1.17526 0.24416,0.23084 -1.37378,2.65692 -2.60771,3.9102 -0.92595,0.94049 -3.72148,2.23766 -5.99919,2.78373 -1.11099,0.26634 -1.78923,0.29224 -2.41309,0.0921 z"
         id="path179" /><g
         id="g721"
         transform="translate(0,-10.23287)"
         style="fill:#ffffff"><g
           aria-label="IN THE NAME OF ALLAH"
           id="text342"
           style="font-size:31.75px;font-family:Bahnschrift;-inkscape-font-specification:'Bahnschrift, @wght=600,wdth=75.0';font-variation-settings:'wdth' 75, 'wght' 600;fill:#ffffff;stroke-width:0.264583"
           transform="translate(-0.086125)"><path
             d="m -565.51862,-176.02327 v 22.54126 h -3.37963 v -22.54126 z"
             style="fill:#ffffff"
             id="path540" /><path
             d="m -562.74359,-153.49751 v -22.52576 h 2.79053 l 5.73608,16.16956 -0.44958,0.49609 v -16.66565 h 3.14709 v 22.52576 h -2.82153 l -5.68958,-15.45642 0.43408,-0.5116 v 15.96802 z"
             style="fill:#ffffff"
             id="path542" /><path
             d="m -539.87677,-153.48201 v -20.68091 h 3.37964 v 20.68091 z m -3.86023,-19.30115 v -3.24011 h 11.1001 v 3.24011 z"
             style="fill:#ffffff"
             id="path544" /><path
             d="m -523.45917,-153.48201 v -22.54126 h 3.37964 v 22.54126 z m -7.16235,0 v -22.54126 h 3.39514 v 22.54126 z m 1.89136,-9.5033 v -3.1936 h 7.22436 v 3.1936 z"
             style="fill:#ffffff"
             id="path546" /><path
             d="m -517.13397,-153.48201 v -22.54126 h 3.37964 v 22.54126 z m 1.6123,0 v -3.27112 h 8.21656 v 3.27112 z m 0,-9.56531 v -3.25561 h 7.44141 v 3.25561 z m 0,-9.70483 v -3.27112 h 8.21656 v 3.27112 z"
             style="fill:#ffffff"
             id="path548" /><path
             d="m -498.7475,-153.49751 v -22.52576 h 2.79053 l 5.73608,16.16956 -0.44958,0.49609 v -16.66565 h 3.14709 v 22.52576 h -2.82153 l -5.68957,-15.45642 0.43408,-0.5116 v 15.96802 z"
             style="fill:#ffffff"
             id="path550" /><path
             d="m -485.97308,-153.48201 5.2865,-22.54126 h 2.69751 l 5.28649,22.54126 h -3.47265 l -3.1626,-16.35559 -3.1626,16.35559 z m 3.48816,-4.2168 v -3.1781 h 6.41821 v 3.1781 z"
             style="fill:#ffffff"
             id="path552" /><path
             d="m -463.50934,-162.81477 4.2478,-13.2085 h 3.08509 v 22.54126 h -3.05408 v -16.4021 l 0.24805,0.99219 -3.58118,11.58069 h -1.89136 l -3.58117,-11.27063 0.34106,-1.30225 v 16.4021 h -3.14709 v -22.54126 h 3.1781 z"
             style="fill:#ffffff"
             id="path554" /><path
             d="m -453.2309,-153.48201 v -22.54126 h 3.37964 v 22.54126 z m 1.61231,0 v -3.27112 h 8.21655 v 3.27112 z m 0,-9.56531 v -3.25561 h 7.4414 v 3.25561 z m 0,-9.70483 v -3.27112 h 8.21655 v 3.27112 z"
             style="fill:#ffffff"
             id="path556" /><path
             d="m -429.17035,-153.24947 q -1.79834,0 -3.06958,-0.65112 -1.27124,-0.65112 -1.93787,-1.87585 -0.66662,-1.22473 -0.66662,-2.96106 v -12.03028 q 0,-1.75183 0.66662,-2.97656 0.66663,-1.22473 1.93787,-1.86035 1.27124,-0.65112 3.06958,-0.65112 1.79834,0 3.06958,0.65112 1.27124,0.63562 1.93787,1.86035 0.66662,1.22473 0.66662,2.97656 v 12.03028 q 0,1.73633 -0.66662,2.96106 -0.66663,1.22473 -1.93787,1.87585 -1.27124,0.65112 -3.06958,0.65112 z m 0,-3.34863 q 1.08521,0 1.67432,-0.60461 0.58911,-0.62012 0.58911,-1.72083 v -11.6737 q 0,-1.08521 -0.58911,-1.68982 -0.58911,-0.62012 -1.67432,-0.62012 -1.0852,0 -1.67432,0.62012 -0.58911,0.60461 -0.58911,1.68982 v 11.6737 q 0,1.10071 0.58911,1.72083 0.58912,0.60461 1.67432,0.60461 z"
             style="fill:#ffffff"
             id="path558" /><path
             d="m -420.86078,-153.48201 v -22.54126 h 3.37964 v 22.54126 z m 1.62781,-9.37927 v -3.22461 h 7.44141 v 3.22461 z m 0,-9.92188 v -3.24011 h 8.21655 v 3.24011 z"
             style="fill:#ffffff"
             id="path560" /><path
             d="m -403.85406,-153.48201 5.28649,-22.54126 h 2.69751 l 5.2865,22.54126 h -3.47265 l -3.1626,-16.35559 -3.1626,16.35559 z m 3.48815,-4.2168 v -3.1781 h 6.41822 v 3.1781 z"
             style="fill:#ffffff"
             id="path562" /><path
             d="m -388.72321,-153.48201 v -22.54126 h 3.37964 v 22.54126 z m 1.5813,0 v -3.24011 h 7.9375 v 3.24011 z"
             style="fill:#ffffff"
             id="path564" /><path
             d="m -377.034,-153.48201 v -22.54126 h 3.37964 v 22.54126 z m 1.5813,0 v -3.24011 h 7.9375 v 3.24011 z"
             style="fill:#ffffff"
             id="path566" /><path
             d="m -366.11993,-153.48201 5.28649,-22.54126 h 2.69751 l 5.2865,22.54126 h -3.47265 l -3.1626,-16.35559 -3.1626,16.35559 z m 3.48816,-4.2168 v -3.1781 h 6.41821 v 3.1781 z"
             style="fill:#ffffff"
             id="path568" /><path
             d="m -343.82672,-153.48201 v -22.54126 h 3.37964 v 22.54126 z m -7.16235,0 v -22.54126 h 3.39514 v 22.54126 z m 1.89135,-9.5033 v -3.1936 h 7.22437 v 3.1936 z"
             style="fill:#ffffff"
             id="path570" /></g><g
           aria-label="THE MOST GRACIOUS, THE MOST MERCIFUL"
           id="text598"
           style="font-size:19.7556px;font-family:Bahnschrift;-inkscape-font-specification:'Bahnschrift, @wdth=75.0';font-variation-settings:'wdth' 75;fill:#ffffff;stroke-width:0.264583"><path
             d="m -566.27377,-135.40752 v -12.87776 h 1.38906 v 12.87776 z m -2.7106,-12.73307 v -1.2926 h 6.81026 v 1.2926 z"
             style="font-size:19.7556px;fill:#ffffff"
             id="path723" /><path
             d="m -555.7497,-135.40752 v -14.02567 h 1.38907 v 14.02567 z m -5.07393,0 v -14.02567 h 1.38906 v 14.02567 z m 1.22507,-6.26042 v -1.2926 h 4.31188 v 1.2926 z"
             style="font-size:19.7556px;fill:#ffffff"
             id="path725" /><path
             d="m -552.43138,-135.40752 v -14.02567 h 1.38906 v 14.02567 z m 0.95498,0 v -1.2926 h 5.06429 v 1.2926 z m 0,-6.3183 v -1.2926 h 4.58198 v 1.2926 z m 0,-6.41477 v -1.2926 h 5.06429 v 1.2926 z"
             style="font-size:19.7556px;fill:#ffffff"
             id="path727" /><path
             d="m -536.47645,-139.20815 3.15433,-10.22504 h 1.36012 v 14.02567 h -1.34083 V -146.684 l 0.0965,0.61736 -2.68166,8.71058 h -1.17684 l -2.68167,-8.51766 0.0965,-0.81028 v 11.27648 h -1.34084 v -14.02567 h 1.36013 z"
             style="font-size:19.7556px;fill:#ffffff"
             id="path729" /><path
             d="m -526.55044,-135.26282 q -1.09968,0 -1.88102,-0.41479 -0.78135,-0.41479 -1.19614,-1.19614 -0.40514,-0.79099 -0.40514,-1.91961 v -7.25399 q 0,-1.12861 0.40514,-1.90996 0.41479,-0.79099 1.19614,-1.20578 0.78134,-0.41479 1.88102,-0.41479 1.10932,0 1.88102,0.41479 0.78135,0.41479 1.18649,1.20578 0.41479,0.78135 0.41479,1.90996 v 7.25399 q 0,1.12862 -0.41479,1.91961 -0.40514,0.78135 -1.18649,1.19614 -0.7717,0.41479 -1.88102,0.41479 z m 0,-1.36013 q 1.00321,0 1.5434,-0.54983 0.54984,-0.55949 0.54984,-1.55305 v -7.38904 q 0,-1.00322 -0.54984,-1.55305 -0.54019,-0.54984 -1.5434,-0.54984 -0.99357,0 -1.54341,0.54984 -0.54983,0.54983 -0.54983,1.55305 v 7.38904 q 0,0.99356 0.54983,1.55305 0.54984,0.54983 1.54341,0.54983 z"
             style="font-size:19.7556px;fill:#ffffff"
             id="path731" /><path
             d="m -518.20642,-135.26282 q -1.13826,0 -1.90032,-0.35691 -0.76205,-0.36656 -1.13826,-1.09968 -0.3762,-0.73312 -0.3762,-1.83279 v -0.69453 h 1.36977 v 0.69453 q 0,1.01286 0.51125,1.51446 0.51125,0.50161 1.53376,0.50161 1.00321,0 1.49517,-0.50161 0.50161,-0.5016 0.50161,-1.51446 v -0.82958 q 0,-0.74276 -0.33762,-1.22507 -0.33762,-0.48232 -0.87781,-0.81994 -0.53055,-0.34726 -1.14791,-0.6463 -0.54984,-0.27009 -1.09003,-0.55948 -0.53054,-0.29904 -0.97427,-0.69453 -0.44373,-0.3955 -0.71383,-0.95498 -0.26044,-0.56913 -0.26044,-1.36977 v -0.68489 q 0,-1.63022 0.84887,-2.43086 0.84887,-0.81028 2.54661,-0.81028 1.65916,0 2.47909,0.81993 0.81994,0.81993 0.81994,2.4598 v 0.73311 h -1.36977 v -0.73311 q 0,-1.00321 -0.48232,-1.50482 -0.47267,-0.50161 -1.44694,-0.50161 -1.01286,0 -1.52411,0.48232 -0.5016,0.47266 -0.5016,1.42764 v 0.68489 q 0,0.74276 0.39549,1.21543 0.3955,0.47267 1.01286,0.81029 0.61736,0.32797 1.28295,0.65594 0.51126,0.25081 0.99357,0.54984 0.48231,0.29903 0.86816,0.70418 0.3955,0.40514 0.61737,0.97427 0.23151,0.56913 0.23151,1.36012 v 0.88746 q 0,1.64951 -0.83923,2.46944 -0.83922,0.81994 -2.52732,0.81994 z"
             style="font-size:19.7556px;fill:#ffffff"
             id="path733" /><path
             d="m -511.26111,-135.40752 v -12.87776 h 1.38906 v 12.87776 z m -2.7106,-12.73307 v -1.2926 h 6.81026 v 1.2926 z"
             style="font-size:19.7556px;fill:#ffffff"
             id="path735" /><path
             d="m -498.84636,-142.96054 h 3.41478 v 4.09001 q 0,1.14791 -0.3955,1.9582 -0.39549,0.80064 -1.1479,1.22507 -0.75241,0.42444 -1.82315,0.42444 -1.09003,0 -1.86173,-0.3955 -0.76205,-0.40514 -1.1672,-1.15755 -0.39549,-0.76206 -0.39549,-1.84244 v -7.32152 q 0,-1.1479 0.39549,-1.94854 0.3955,-0.80064 1.14791,-1.22508 0.75241,-0.42443 1.82314,-0.42443 1.05145,0 1.78456,0.41479 0.74277,0.40514 1.12862,1.18649 0.39549,0.78134 0.39549,1.89067 v 0.67523 h -1.50481 v -0.67523 q 0,-1.03216 -0.47267,-1.59164 -0.46302,-0.55948 -1.33119,-0.55948 -0.93568,0 -1.45658,0.58842 -0.5209,0.58842 -0.5209,1.6688 v 7.32152 q 0,0.97427 0.53054,1.51447 0.5402,0.54019 1.50482,0.54019 0.94534,0 1.45659,-0.57878 0.5209,-0.58842 0.5209,-1.64951 v -2.836 h -2.02572 z"
             style="font-size:19.7556px;fill:#ffffff"
             id="path737" /><path
             d="m -492.83674,-141.33997 v -1.2926 h 2.59485 q 0.94533,0 1.46623,-0.5209 0.53055,-0.5209 0.53055,-1.46623 v -1.44694 q 0,-0.99357 -0.53055,-1.53376 -0.5209,-0.54984 -1.46623,-0.54984 h -2.59485 v -1.2926 h 2.49839 q 1.10932,0 1.88102,0.37621 0.78135,0.36656 1.18649,1.08038 0.41479,0.71382 0.41479,1.72668 v 1.63987 q 0,1.04179 -0.41479,1.77491 -0.40514,0.73312 -1.18649,1.11897 -0.7717,0.38585 -1.88102,0.38585 z m -0.85851,5.93245 v -14.03532 h 1.38906 v 14.03532 z m 5.62377,0 -1.86173,-6.36653 1.23472,-0.44373 2.23794,6.81026 z"
             style="font-size:19.7556px;fill:#ffffff"
             id="path739" /><path
             d="m -485.93001,-135.40752 3.24115,-14.02567 h 1.67845 l 3.24114,14.02567 h -1.5434 l -2.53697,-12.47262 -2.53697,12.47262 z m 1.80385,-3.40513 v -1.2926 h 4.76526 v 1.2926 z"
             style="font-size:19.7556px;fill:#ffffff"
             id="path741" /><path
             d="m -474.02651,-135.26282 q -1.03215,0 -1.76527,-0.42444 -0.72347,-0.42443 -1.10932,-1.22507 -0.38585,-0.80064 -0.38585,-1.9389 v -7.1286 q 0,-1.1479 0.38585,-1.94854 0.38585,-0.80064 1.10932,-1.22508 0.73312,-0.42443 1.76527,-0.42443 1.04179,0 1.76526,0.42443 0.73312,0.42444 1.10932,1.22508 0.38585,0.80064 0.38585,1.9389 v 0.51125 h -1.38906 v -0.51125 q 0,-0.71383 -0.22186,-1.21543 -0.21222,-0.50161 -0.63666,-0.76206 -0.41479,-0.27009 -1.01285,-0.27009 -0.87781,0 -1.37942,0.58842 -0.49196,0.58842 -0.49196,1.6688 v 7.1286 q 0,1.07073 0.49196,1.65915 0.50161,0.58843 1.37942,0.58843 0.8971,0 1.37941,-0.58843 0.49196,-0.58842 0.49196,-1.65915 v -0.51126 h 1.38906 v 0.51126 q 0,1.13826 -0.38585,1.9389 -0.3762,0.80064 -1.10932,1.22507 -0.72347,0.42444 -1.76526,0.42444 z"
             style="font-size:19.7556px;fill:#ffffff"
             id="path743" /><path
             d="m -467.63104,-149.43319 v 14.02567 h -1.38906 v -14.02567 z"
             style="font-size:19.7556px;fill:#ffffff"
             id="path745" /><path
             d="m -462.01691,-135.26282 q -1.09968,0 -1.88103,-0.41479 -0.78134,-0.41479 -1.19613,-1.19614 -0.40515,-0.79099 -0.40515,-1.91961 v -7.25399 q 0,-1.12861 0.40515,-1.90996 0.41479,-0.79099 1.19613,-1.20578 0.78135,-0.41479 1.88103,-0.41479 1.10932,0 1.88102,0.41479 0.78134,0.41479 1.18649,1.20578 0.41479,0.78135 0.41479,1.90996 v 7.25399 q 0,1.12862 -0.41479,1.91961 -0.40515,0.78135 -1.18649,1.19614 -0.7717,0.41479 -1.88102,0.41479 z m 0,-1.36013 q 1.00321,0 1.5434,-0.54983 0.54984,-0.55949 0.54984,-1.55305 v -7.38904 q 0,-1.00322 -0.54984,-1.55305 -0.54019,-0.54984 -1.5434,-0.54984 -0.99357,0 -1.54341,0.54984 -0.54983,0.54983 -0.54983,1.55305 v 7.38904 q 0,0.99356 0.54983,1.55305 0.54984,0.54983 1.54341,0.54983 z"
             style="font-size:19.7556px;fill:#ffffff"
             id="path747" /><path
             d="m -453.9044,-135.26282 q -1.60128,0 -2.39228,-0.81994 -0.79099,-0.81993 -0.79099,-2.46944 v -10.88099 h 1.38906 v 10.94851 q 0,0.93569 0.44373,1.39871 0.45338,0.46302 1.35048,0.46302 0.91639,0 1.36012,-0.46302 0.45338,-0.46302 0.45338,-1.39871 v -10.94851 h 1.38906 v 10.88099 q 0,1.64951 -0.80064,2.46944 -0.79099,0.81994 -2.40192,0.81994 z"
             style="font-size:19.7556px;fill:#ffffff"
             id="path749" /><path
             d="m -445.93659,-135.26282 q -1.13825,0 -1.90031,-0.35691 -0.76206,-0.36656 -1.13826,-1.09968 -0.3762,-0.73312 -0.3762,-1.83279 v -0.69453 h 1.36977 v 0.69453 q 0,1.01286 0.51125,1.51446 0.51125,0.50161 1.53375,0.50161 1.00322,0 1.49518,-0.50161 0.5016,-0.5016 0.5016,-1.51446 v -0.82958 q 0,-0.74276 -0.33762,-1.22507 -0.33762,-0.48232 -0.87781,-0.81994 -0.53054,-0.34726 -1.1479,-0.6463 -0.54984,-0.27009 -1.09003,-0.55948 -0.53055,-0.29904 -0.97427,-0.69453 -0.44373,-0.3955 -0.71383,-0.95498 -0.26045,-0.56913 -0.26045,-1.36977 v -0.68489 q 0,-1.63022 0.84887,-2.43086 0.84888,-0.81028 2.54662,-0.81028 1.65916,0 2.47909,0.81993 0.81993,0.81993 0.81993,2.4598 v 0.73311 h -1.36977 v -0.73311 q 0,-1.00321 -0.48231,-1.50482 -0.47267,-0.50161 -1.44694,-0.50161 -1.01286,0 -1.52411,0.48232 -0.50161,0.47266 -0.50161,1.42764 v 0.68489 q 0,0.74276 0.3955,1.21543 0.3955,0.47267 1.01286,0.81029 0.61736,0.32797 1.28295,0.65594 0.51125,0.25081 0.99357,0.54984 0.48231,0.29903 0.86816,0.70418 0.3955,0.40514 0.61736,0.97427 0.23151,0.56913 0.23151,1.36012 v 0.88746 q 0,1.64951 -0.83922,2.46944 -0.83923,0.81994 -2.52733,0.81994 z"
             style="font-size:19.7556px;fill:#ffffff"
             id="path751" /><path
             d="m -441.40284,-132.78373 v -4.20577 h 1.58199 v 2.35368 z"
             style="font-size:19.7556px;fill:#ffffff"
             id="path753" /><path
             d="m -432.25818,-135.40752 v -12.87776 h 1.38906 v 12.87776 z m -2.7106,-12.73307 v -1.2926 h 6.81026 v 1.2926 z"
             style="font-size:19.7556px;fill:#ffffff"
             id="path755" /><path
             d="m -421.7341,-135.40752 v -14.02567 h 1.38907 v 14.02567 z m -5.07393,0 v -14.02567 h 1.38906 v 14.02567 z m 1.22507,-6.26042 v -1.2926 h 4.31189 v 1.2926 z"
             style="font-size:19.7556px;fill:#ffffff"
             id="path757" /><path
             d="m -418.41579,-135.40752 v -14.02567 h 1.38906 v 14.02567 z m 0.95498,0 v -1.2926 h 5.06429 v 1.2926 z m 0,-6.3183 v -1.2926 h 4.58198 v 1.2926 z m 0,-6.41477 v -1.2926 h 5.06429 v 1.2926 z"
             style="font-size:19.7556px;fill:#ffffff"
             id="path759" /><path
             d="m -402.46086,-139.20815 3.15433,-10.22504 h 1.36012 v 14.02567 h -1.34083 V -146.684 l 0.0965,0.61736 -2.68166,8.71058 h -1.17684 l -2.68167,-8.51766 0.0965,-0.81028 v 11.27648 h -1.34083 v -14.02567 h 1.36012 z"
             style="font-size:19.7556px;fill:#ffffff"
             id="path761" /><path
             d="m -392.53485,-135.26282 q -1.09968,0 -1.88102,-0.41479 -0.78135,-0.41479 -1.19614,-1.19614 -0.40514,-0.79099 -0.40514,-1.91961 v -7.25399 q 0,-1.12861 0.40514,-1.90996 0.41479,-0.79099 1.19614,-1.20578 0.78134,-0.41479 1.88102,-0.41479 1.10932,0 1.88102,0.41479 0.78135,0.41479 1.18649,1.20578 0.41479,0.78135 0.41479,1.90996 v 7.25399 q 0,1.12862 -0.41479,1.91961 -0.40514,0.78135 -1.18649,1.19614 -0.7717,0.41479 -1.88102,0.41479 z m 0,-1.36013 q 1.00321,0 1.5434,-0.54983 0.54984,-0.55949 0.54984,-1.55305 v -7.38904 q 0,-1.00322 -0.54984,-1.55305 -0.54019,-0.54984 -1.5434,-0.54984 -0.99357,0 -1.5434,0.54984 -0.54984,0.54983 -0.54984,1.55305 v 7.38904 q 0,0.99356 0.54984,1.55305 0.54983,0.54983 1.5434,0.54983 z"
             style="font-size:19.7556px;fill:#ffffff"
             id="path763" /><path
             d="m -384.19083,-135.26282 q -1.13826,0 -1.90031,-0.35691 -0.76206,-0.36656 -1.13826,-1.09968 -0.37621,-0.73312 -0.37621,-1.83279 v -0.69453 h 1.36977 v 0.69453 q 0,1.01286 0.51126,1.51446 0.51125,0.50161 1.53375,0.50161 1.00321,0 1.49517,-0.50161 0.50161,-0.5016 0.50161,-1.51446 v -0.82958 q 0,-0.74276 -0.33762,-1.22507 -0.33762,-0.48232 -0.87781,-0.81994 -0.53054,-0.34726 -1.14791,-0.6463 -0.54983,-0.27009 -1.09002,-0.55948 -0.53055,-0.29904 -0.97428,-0.69453 -0.44373,-0.3955 -0.71382,-0.95498 -0.26045,-0.56913 -0.26045,-1.36977 v -0.68489 q 0,-1.63022 0.84887,-2.43086 0.84887,-0.81028 2.54662,-0.81028 1.65915,0 2.47909,0.81993 0.81993,0.81993 0.81993,2.4598 v 0.73311 h -1.36977 v -0.73311 q 0,-1.00321 -0.48231,-1.50482 -0.47267,-0.50161 -1.44694,-0.50161 -1.01286,0 -1.52411,0.48232 -0.50161,0.47266 -0.50161,1.42764 v 0.68489 q 0,0.74276 0.3955,1.21543 0.39549,0.47267 1.01286,0.81029 0.61736,0.32797 1.28295,0.65594 0.51125,0.25081 0.99356,0.54984 0.48232,0.29903 0.86817,0.70418 0.3955,0.40514 0.61736,0.97427 0.23151,0.56913 0.23151,1.36012 v 0.88746 q 0,1.64951 -0.83923,2.46944 -0.83922,0.81994 -2.52732,0.81994 z"
             style="font-size:19.7556px;fill:#ffffff"
             id="path765" /><path
             d="m -377.24551,-135.40752 v -12.87776 h 1.38906 v 12.87776 z m -2.71061,-12.73307 v -1.2926 h 6.81027 v 1.2926 z"
             style="font-size:19.7556px;fill:#ffffff"
             id="path767" /><path
             d="m -363.69251,-139.20815 3.15433,-10.22504 h 1.36013 v 14.02567 h -1.34083 V -146.684 l 0.0965,0.61736 -2.68166,8.71058 h -1.17685 l -2.68166,-8.51766 0.0965,-0.81028 v 11.27648 h -1.34083 v -14.02567 h 1.36013 z"
             style="font-size:19.7556px;fill:#ffffff"
             id="path769" /><path
             d="m -357.2488,-135.40752 v -14.02567 h 1.38906 v 14.02567 z m 0.95498,0 v -1.2926 h 5.06429 v 1.2926 z m 0,-6.3183 v -1.2926 h 4.58198 v 1.2926 z m 0,-6.41477 v -1.2926 h 5.06429 v 1.2926 z"
             style="font-size:19.7556px;fill:#ffffff"
             id="path771" /><path
             d="m -348.92406,-141.33997 v -1.2926 h 2.59484 q 0.94534,0 1.46624,-0.5209 0.53054,-0.5209 0.53054,-1.46623 v -1.44694 q 0,-0.99357 -0.53054,-1.53376 -0.5209,-0.54984 -1.46624,-0.54984 h -2.59484 v -1.2926 h 2.49838 q 1.10932,0 1.88102,0.37621 0.78135,0.36656 1.18649,1.08038 0.41479,0.71382 0.41479,1.72668 v 1.63987 q 0,1.04179 -0.41479,1.77491 -0.40514,0.73312 -1.18649,1.11897 -0.7717,0.38585 -1.88102,0.38585 z m -0.85852,5.93245 v -14.03532 h 1.38906 v 14.03532 z m 5.62377,0 -1.86173,-6.36653 1.23473,-0.44373 2.23793,6.81026 z"
             style="font-size:19.7556px;fill:#ffffff"
             id="path773" /><path
             d="m -337.9852,-135.26282 q -1.03215,0 -1.76527,-0.42444 -0.72347,-0.42443 -1.10932,-1.22507 -0.38585,-0.80064 -0.38585,-1.9389 v -7.1286 q 0,-1.1479 0.38585,-1.94854 0.38585,-0.80064 1.10932,-1.22508 0.73312,-0.42443 1.76527,-0.42443 1.0418,0 1.76527,0.42443 0.73311,0.42444 1.10932,1.22508 0.38585,0.80064 0.38585,1.9389 v 0.51125 h -1.38906 v -0.51125 q 0,-0.71383 -0.22187,-1.21543 -0.21222,-0.50161 -0.63665,-0.76206 -0.41479,-0.27009 -1.01286,-0.27009 -0.87781,0 -1.37942,0.58842 -0.49196,0.58842 -0.49196,1.6688 v 7.1286 q 0,1.07073 0.49196,1.65915 0.50161,0.58843 1.37942,0.58843 0.8971,0 1.37942,-0.58843 0.49196,-0.58842 0.49196,-1.65915 v -0.51126 h 1.38906 v 0.51126 q 0,1.13826 -0.38585,1.9389 -0.37621,0.80064 -1.10932,1.22507 -0.72347,0.42444 -1.76527,0.42444 z"
             style="font-size:19.7556px;fill:#ffffff"
             id="path775" /><path
             d="m -331.58972,-149.43319 v 14.02567 h -1.38906 v -14.02567 z"
             style="font-size:19.7556px;fill:#ffffff"
             id="path777" /><path
             d="m -329.4579,-135.40752 v -14.02567 h 1.38906 v 14.02567 z m 0.96462,-6.1929 v -1.2926 h 4.58198 v 1.2926 z m 0,-6.54017 v -1.2926 h 5.06429 v 1.2926 z"
             style="font-size:19.7556px;fill:#ffffff"
             id="path779" /><path
             d="m -319.08817,-135.26282 q -1.60128,0 -2.39227,-0.81994 -0.791,-0.81993 -0.791,-2.46944 v -10.88099 h 1.38906 v 10.94851 q 0,0.93569 0.44373,1.39871 0.45338,0.46302 1.35048,0.46302 0.9164,0 1.36012,-0.46302 0.45338,-0.46302 0.45338,-1.39871 v -10.94851 h 1.38906 v 10.88099 q 0,1.64951 -0.80064,2.46944 -0.79099,0.81994 -2.40192,0.81994 z"
             style="font-size:19.7556px;fill:#ffffff"
             id="path781" /><path
             d="m -314.24573,-135.40752 v -14.02567 h 1.38906 v 14.02567 z m 0.98392,0 v -1.2926 h 4.84242 v 1.2926 z"
             style="font-size:19.7556px;fill:#ffffff"
             id="path783" /></g></g></g></g></svg>
