<?xml version="1.0" encoding="UTF-8" standalone="no"?>
<!-- Created with Inkscape (http://www.inkscape.org/) -->

<svg
   width="191.25763mm"
   height="93.362152mm"
   viewBox="0 0 191.25763 93.362152"
   version="1.1"
   id="svg5"
   xml:space="preserve"
   inkscape:version="1.2.2 (732a01da63, 2022-12-09)"
   sodipodi:docname="nest.svg"
   xmlns:inkscape="http://www.inkscape.org/namespaces/inkscape"
   xmlns:sodipodi="http://sodipodi.sourceforge.net/DTD/sodipodi-0.dtd"
   xmlns="http://www.w3.org/2000/svg"
   xmlns:svg="http://www.w3.org/2000/svg"><sodipodi:namedview
     id="namedview7"
     pagecolor="#ffffff"
     bordercolor="#000000"
     borderopacity="0.25"
     inkscape:showpageshadow="2"
     inkscape:pageopacity="0.0"
     inkscape:pagecheckerboard="0"
     inkscape:deskcolor="#d1d1d1"
     inkscape:document-units="mm"
     showgrid="false"
     inkscape:zoom="0.59419893"
     inkscape:cx="216.25754"
     inkscape:cy="102.65922"
     inkscape:window-width="1600"
     inkscape:window-height="847"
     inkscape:window-x="-8"
     inkscape:window-y="-8"
     inkscape:window-maximized="1"
     inkscape:current-layer="layer1" /><defs
     id="defs2" /><g
     inkscape:label="Layer 1"
     inkscape:groupmode="layer"
     id="layer1"
     transform="translate(-8.3880768,-35.747058)"><path
       style="fill:#e1234e;fill-opacity:1;stroke-width:0.264583"
       d="m 55.608541,127.94843 c 2.52833,-1.42921 4.63676,-2.97734 7.14767,-5.24823 1.88375,-1.70367 5.06299,-5.37756 4.84348,-5.59706 -0.066,-0.066 -1.00977,0.22249 -2.09715,0.6412 -1.81862,0.70028 -6.21517,1.8824 -8.43879,2.26896 l -0.92604,0.16098 1.05833,-0.85377 c 5.91439,-4.77124 9.13141,-11.24785 9.16564,-18.45259 0.0121,-2.553907 -0.26535,-5.325027 -0.53322,-5.325027 -0.0936,0 -0.43857,1.0418 -0.76662,2.3151 -1.69051,6.561467 -6.09203,11.979487 -12.09913,14.893347 -3.93163,1.90711 -5.36351,2.22502 -10.05417,2.23228 -3.7758,0.006 -4.09738,-0.0359 -6.61458,-0.85945 -1.45521,-0.47608 -3.17952,-1.14746 -3.83179,-1.49195 l -1.18595,-0.62635 1.05366,-0.29251 c 0.57951,-0.16089 1.24217,-0.29319 1.47258,-0.294 0.80742,-0.003 0.71084,-0.31299 -0.46299,-1.48682 -1.71228,-1.71228 -3.04862,-4.66439 -3.20161,-7.07269 -0.15487,-2.43792 0.25702,-3.906857 1.47398,-5.256637 1.69433,-1.87927 3.99069,-2.52214 6.00411,-1.68088 1.13131,0.47269 1.3788,1.30756 0.79797,2.69183 -0.57778,1.37703 -0.56797,2.780727 0.0265,3.787047 0.86831,1.46993 3.4534,2.89388 5.30045,2.91965 0.71497,0.01 0.95276,-0.17608 1.68656,-1.31961 0.46984,-0.73218 1.13427,-2.0121 1.47651,-2.84427 l 0.62227,-1.513047 0.0319,1.058327 c 0.0175,0.58209 0.0122,1.49271 -0.012,2.02361 -0.0242,0.5309 0.0722,1.03704 0.21416,1.12477 0.3767,0.23282 2.48168,-2.21454 3.37473,-3.923627 0.85402,-1.6344 1.32367,-1.80791 2.83305,-1.04662 1.05649,0.53286 2.30196,1.680067 2.30196,2.120337 0,0.18247 0.13679,0.4163 0.30397,0.51963 0.43571,0.26927 0.0985,-1.997927 -0.72231,-4.856397 -2.2493,-7.833226 -8.5798,-15.002974 -15.9663,-18.082988 -4.80605,-2.00402 -10.39598,-2.73789 -15.23306,-1.999861 -1.90992,0.291409 -2.71943,0.52909 -2.91042,0.85454 -0.75177,1.28101 -2.30788,3.020804 -2.56161,2.863988 -0.19017,-0.117533 -0.23198,-0.838232 -0.12324,-2.124602 0.0905,-1.070702 0.11772,-1.946732 0.0605,-1.946732 -0.0573,0 -0.53534,0.600263 -1.06242,1.333918 -0.52708,0.733655 -1.07403,1.262409 -1.21544,1.175009 -0.14142,-0.0874 -0.25712,-0.748157 -0.25712,-1.46835 0,-1.281959 -0.0223,-1.318384 -1.06438,-1.735325 -1.28639,-0.51471 -2.80366,-2.215013 -3.22172,-3.610354 -0.19104,-0.637638 -0.56192,-1.154406 -0.98657,-1.374637 -1.04649,-0.542735 -2.64082,-2.202254 -2.8265,-2.942079 -0.4046,-1.61203 0.51612,-4.111477 2.05671,-5.583309 1.04254,-0.996014 1.70509,-1.270405 4.41326,-1.827748 4.10538,-0.844892 6.30964,-2.1531 10.63336,-6.310801 2.75054,-2.644934 3.41756,-3.138864 5.85306,-4.334219 4.61127,-2.263231 9.68278,-3.134142 16.7351,-2.873857 5.60945,0.207031 9.26747,0.95222 14.40173,2.93382 1.35855,0.524341 2.57275,0.953348 2.69821,0.953348 0.12547,0 0.0997,-0.368317 -0.0572,-0.818483 -0.15693,-0.450165 -0.22083,-1.529663 -0.14202,-2.398882 0.17692,-1.951048 1.00599,-3.294871 2.76143,-4.475909 2.56081,-1.722892 3.77886,-3.339067 3.77886,-5.014015 0,-0.728218 0.068,-0.80206 0.59531,-0.64649 1.24395,0.366992 4.24761,2.33481 5.82892,3.818763 3.05488,2.866793 4.65465,6.386695 4.87473,10.725641 0.29123,5.741765 -2.10793,10.743179 -6.75032,14.07204 -2.19211,1.571868 -4.17679,2.403192 -6.73145,2.819598 -0.98227,0.16011 -1.78594,0.371944 -1.78594,0.470742 0,0.370194 2.8249,0.837837 5.0167,0.830482 2.76126,-0.0093 5.05245,-0.554829 7.6833,-1.829486 1.5335,-0.742984 2.49627,-1.478803 4.23729,-3.238447 2.50716,-2.533983 3.65816,-4.521615 4.39775,-7.594414 0.24177,-1.004492 0.49126,-2.004942 0.55441,-2.223223 0.30295,-1.047093 5.18121,5.733604 7.59762,10.560548 7.470049,14.921952 7.122849,30.183254 -0.97686,42.938421 l -1.12583,1.77292 -0.0106,-2.96355 c -0.0112,-3.1626 -0.57963,-8.122917 -0.93078,-8.122917 -0.11647,0 -0.34345,0.6846 -0.5044,1.521347 -0.51552,2.68015 -2.13314,7.2652 -3.50842,9.94438 -2.33631,4.5514 -5.41188,8.46802 -9.00783,11.47113 -3.33779,2.7875 -3.30984,2.77166 -2.47897,1.4048 1.14754,-1.88782 2.48553,-4.5856 3.33564,-6.72561 0.87229,-2.19587 2.142,-6.92764 1.91882,-7.15081 -0.0789,-0.0789 -0.57078,0.5628 -1.09306,1.42601 -5.36541,8.86775 -15.54654,15.81509 -25.78896,17.5977 -3.56153,0.61986 -3.70087,0.53884 -1.3544,-0.78758 z M 149.21443,95.688213 c -2.84304,-0.88852 -5.04831,-2.98981 -6.19139,-5.899457 -0.77238,-1.966063 -0.83187,-5.565407 -0.12843,-7.77146 0.86219,-2.703944 3.54778,-5.468853 6.30738,-6.493663 1.47013,-0.54595 4.98948,-0.537586 6.89507,0.01638 2.92604,0.850624 5.42716,3.769751 5.88503,6.868585 0.17388,1.176816 0.14789,1.273482 -0.30743,1.143325 -0.27355,-0.0782 -3.48829,-0.223758 -7.14385,-0.323466 -4.85413,-0.132397 -6.69663,-0.100145 -6.83244,0.119608 -0.27313,0.441933 0.32468,3.91904 0.89576,5.210045 1.14936,2.598343 4.28681,4.483053 6.97131,4.187783 1.80776,-0.19883 3.00532,-0.5821 4.23399,-1.35506 0.99646,-0.62687 1.00786,-0.62771 1.65035,-0.12233 l 0.64696,0.5089 -1.13788,1.04886 c -1.55373,1.43218 -3.18668,2.34665 -5.06268,2.83516 -1.8955,0.49358 -5.14641,0.50662 -6.68175,0.0268 z m 6.20817,-13.841185 c 1.37928,-0.06203 1.38903,-0.06853 1.38326,-0.922366 -0.0132,-1.948524 -1.41097,-3.807846 -3.3417,-4.445045 -2.35058,-0.775761 -4.84311,1.114687 -5.50335,4.174006 -0.1013,0.469392 -0.12616,0.945642 -0.0552,1.058333 0.12175,0.193442 4.47846,0.271727 7.51702,0.135072 z m 15.66244,13.960555 c -0.80814,-0.12797 -2.05765,-0.46376 -2.77669,-0.7462 -1.45018,-0.56964 -1.43376,-0.5306 -1.8289,-4.34714 l -0.1849,-1.785935 0.74866,2.64e-4 c 0.61674,2.2e-4 0.87405,0.221689 1.46017,1.256771 1.53968,2.71902 3.87603,4.34375 6.29884,4.3803 3.40555,0.0514 5.26992,-3.55586 2.70021,-5.224435 -0.53862,-0.349734 -2.45433,-1.02208 -4.25713,-1.494102 -2.396,-0.627335 -3.56421,-1.077809 -4.34233,-1.67445 -3.93595,-3.017985 -2.56682,-9.367501 2.31458,-10.734209 2.09024,-0.585232 7.7558,-0.106989 9.12432,0.770205 0.36957,0.236889 1.14991,4.683971 0.89717,5.11288 -0.0643,0.10914 -0.44517,0.198437 -0.84635,0.198437 -0.57859,0 -0.85566,-0.224623 -1.33997,-1.086329 -2.21933,-3.948776 -5.75696,-5.094835 -8.28428,-2.683796 -0.53144,0.506987 -0.72602,0.94828 -0.72172,1.636813 0.011,1.75827 1.17255,2.630663 4.62432,3.473064 5.61917,1.371346 7.80521,3.255687 7.80521,6.727997 0,2.615465 -1.34537,4.648815 -3.76839,5.695435 -1.57693,0.68115 -5.10164,0.92364 -7.62282,0.52442 z m 21.31308,-0.31806 c -1.14809,-0.39947 -2.478,-1.761 -2.77923,-2.84531 -0.14329,-0.51578 -0.26119,-3.884577 -0.262,-7.486218 l -0.001,-6.548437 h -1.45521 c -1.42839,0 -1.45521,-0.0141 -1.45521,-0.765067 0,-0.583597 0.14831,-0.802291 0.62525,-0.921993 1.43957,-0.361313 3.82625,-2.296134 5.06036,-4.102322 0.91954,-1.345788 1.38323,-1.80181 1.81019,-1.780241 0.5448,0.02753 0.57784,0.167907 0.6496,2.760099 l 0.0756,2.731103 2.38873,-0.186867 2.38872,-0.186868 -0.0831,1.159933 -0.0831,1.159931 -1.85208,0.05014 c -1.01865,0.02758 -2.11998,0.05734 -2.4474,0.06615 l -0.59531,0.016 v 6.499685 c 0,6.380092 0.10785,7.321312 0.8995,7.849912 0.54937,0.36682 1.81684,0.20207 2.71476,-0.35288 0.72257,-0.44657 0.97488,-0.49205 1.288,-0.23218 0.5985,0.49671 0.47235,0.92449 -0.53291,1.80711 -1.5552,1.36549 -4.46649,1.96496 -6.35373,1.30831 z m -78.59213,-0.22882 c -0.28246,-0.45703 0.36651,-0.9665 1.45231,-1.14013 1.87233,-0.29939 1.86633,-0.27686 1.86197,-6.997102 -0.003,-4.231558 -0.10051,-6.195359 -0.33163,-6.66183 -0.18026,-0.363802 -0.86311,-0.931585 -1.51746,-1.26174 -1.67852,-0.846904 -1.56412,-1.359828 0.42469,-1.904238 1.89362,-0.51835 3.63129,-1.487265 4.71894,-2.631252 0.42741,-0.449543 0.99276,-0.817353 1.25633,-0.817353 0.43367,0 0.46433,0.187166 0.32258,1.969537 -0.0861,1.083244 -0.0768,2.098701 0.0208,2.256573 0.11268,0.182308 0.66281,-0.06928 1.50777,-0.689536 3.87973,-2.847985 9.08464,-2.935875 11.64289,-0.196601 1.27101,1.36095 1.35913,1.911461 1.51942,9.492318 l 0.15105,7.143754 1.05834,0.22969 c 1.67122,0.3627 1.71979,0.38821 1.71979,0.90325 0,0.45913 -0.32969,0.48767 -5.55625,0.48102 -5.07469,-0.007 -5.55625,-0.0465 -5.55625,-0.46196 0,-0.47451 0.27116,-0.59847 1.9161,-0.87591 0.75404,-0.12718 1.02804,-0.31835 1.14942,-0.80197 0.0877,-0.34924 0.1162,-3.409888 0.0634,-6.801431 -0.0808,-5.19353 -0.16741,-6.298427 -0.54883,-7.002976 -1.39703,-2.580555 -4.20508,-2.599314 -7.75244,-0.05179 l -1.17767,0.845738 v 5.891048 c 0,3.271055 0.11719,6.199291 0.26351,6.584141 0.17142,0.45087 0.68701,0.88041 1.47535,1.22913 0.85933,0.38012 1.16749,0.6516 1.0594,0.93328 -0.0838,0.21848 -0.15243,0.44431 -0.15243,0.50187 0,0.25085 -10.8346,0.0877 -10.99109,-0.16553 z M 63.330301,47.377527 c -0.35703,-1.334962 -0.17182,-3.040412 0.48291,-4.446846 1.08511,-2.330938 0.76109,-4.763696 -0.85987,-6.456019 l -0.69693,-0.727604 h 1.51525 c 2.38774,0 4.74196,1.540614 5.06853,3.316863 0.1717,0.933957 0.15358,0.960175 -1.79456,2.595821 -2.14746,1.802988 -2.80805,2.772761 -3.201,4.699135 -0.27397,1.34313 -0.37437,1.541976 -0.51433,1.01865 z"
       id="path787" /></g></svg>
